%TF.GenerationSoftware,KiCad,Pcbnew,(6.0.7-1)-1*%
%TF.CreationDate,2022-10-28T21:41:31+05:30*%
%TF.ProjectId,Ac Temp Control V2,41632054-656d-4702-9043-6f6e74726f6c,rev?*%
%TF.SameCoordinates,Original*%
%TF.FileFunction,Copper,L1,Top*%
%TF.FilePolarity,Positive*%
%FSLAX46Y46*%
G04 Gerber Fmt 4.6, Leading zero omitted, Abs format (unit mm)*
G04 Created by KiCad (PCBNEW (6.0.7-1)-1) date 2022-10-28 21:41:31*
%MOMM*%
%LPD*%
G01*
G04 APERTURE LIST*
G04 Aperture macros list*
%AMRoundRect*
0 Rectangle with rounded corners*
0 $1 Rounding radius*
0 $2 $3 $4 $5 $6 $7 $8 $9 X,Y pos of 4 corners*
0 Add a 4 corners polygon primitive as box body*
4,1,4,$2,$3,$4,$5,$6,$7,$8,$9,$2,$3,0*
0 Add four circle primitives for the rounded corners*
1,1,$1+$1,$2,$3*
1,1,$1+$1,$4,$5*
1,1,$1+$1,$6,$7*
1,1,$1+$1,$8,$9*
0 Add four rect primitives between the rounded corners*
20,1,$1+$1,$2,$3,$4,$5,0*
20,1,$1+$1,$4,$5,$6,$7,0*
20,1,$1+$1,$6,$7,$8,$9,0*
20,1,$1+$1,$8,$9,$2,$3,0*%
G04 Aperture macros list end*
%TA.AperFunction,ComponentPad*%
%ADD10O,2.400000X1.600000*%
%TD*%
%TA.AperFunction,ComponentPad*%
%ADD11R,2.400000X1.600000*%
%TD*%
%TA.AperFunction,ComponentPad*%
%ADD12C,1.500000*%
%TD*%
%TA.AperFunction,ComponentPad*%
%ADD13C,1.600000*%
%TD*%
%TA.AperFunction,ComponentPad*%
%ADD14O,1.600000X1.600000*%
%TD*%
%TA.AperFunction,ComponentPad*%
%ADD15RoundRect,0.250000X0.845000X-0.620000X0.845000X0.620000X-0.845000X0.620000X-0.845000X-0.620000X0*%
%TD*%
%TA.AperFunction,ComponentPad*%
%ADD16O,2.190000X1.740000*%
%TD*%
%TA.AperFunction,ComponentPad*%
%ADD17C,2.000000*%
%TD*%
%TA.AperFunction,ComponentPad*%
%ADD18R,1.600000X1.600000*%
%TD*%
%TA.AperFunction,ComponentPad*%
%ADD19RoundRect,0.250000X-0.620000X-0.845000X0.620000X-0.845000X0.620000X0.845000X-0.620000X0.845000X0*%
%TD*%
%TA.AperFunction,ComponentPad*%
%ADD20O,1.740000X2.190000*%
%TD*%
%TA.AperFunction,ComponentPad*%
%ADD21R,1.800000X1.800000*%
%TD*%
%TA.AperFunction,ComponentPad*%
%ADD22C,1.800000*%
%TD*%
%TA.AperFunction,ComponentPad*%
%ADD23RoundRect,0.250200X0.649800X0.649800X-0.649800X0.649800X-0.649800X-0.649800X0.649800X-0.649800X0*%
%TD*%
%TA.AperFunction,ComponentPad*%
%ADD24R,1.300000X1.300000*%
%TD*%
%TA.AperFunction,ComponentPad*%
%ADD25C,1.300000*%
%TD*%
%TA.AperFunction,ComponentPad*%
%ADD26R,1.500000X1.500000*%
%TD*%
%TA.AperFunction,Conductor*%
%ADD27C,0.600000*%
%TD*%
G04 APERTURE END LIST*
D10*
%TO.P,U1,28,PC5*%
%TO.N,Net-(DISPLAY1-Pad3)*%
X161401802Y-87906802D03*
%TO.P,U1,27,PC4*%
%TO.N,Net-(DISPLAY1-Pad4)*%
X161401802Y-90446802D03*
%TO.P,U1,26,PC3*%
%TO.N,unconnected-(U1-Pad26)*%
X161401802Y-92986802D03*
%TO.P,U1,25,PC2*%
%TO.N,unconnected-(U1-Pad25)*%
X161401802Y-95526802D03*
%TO.P,U1,24,PC1*%
%TO.N,unconnected-(U1-Pad24)*%
X161401802Y-98066802D03*
%TO.P,U1,23,PC0*%
%TO.N,unconnected-(U1-Pad23)*%
X161401802Y-100606802D03*
%TO.P,U1,22,GND*%
%TO.N,GND*%
X161401802Y-103146802D03*
%TO.P,U1,21,AREF*%
%TO.N,AREF*%
X161401802Y-105686802D03*
%TO.P,U1,20,AVCC*%
%TO.N,Net-(D1-Pad2)*%
X161401802Y-108226802D03*
%TO.P,U1,19,PB5*%
%TO.N,Net-(R2-Pad2)*%
X161401802Y-110766802D03*
%TO.P,U1,18,PB4*%
%TO.N,unconnected-(U1-Pad18)*%
X161401802Y-113306802D03*
%TO.P,U1,17,PB3*%
%TO.N,unconnected-(U1-Pad17)*%
X161401802Y-115846802D03*
%TO.P,U1,16,PB2*%
%TO.N,unconnected-(U1-Pad16)*%
X161401802Y-118386802D03*
%TO.P,U1,15,PB1*%
%TO.N,unconnected-(U1-Pad15)*%
X161401802Y-120926802D03*
%TO.P,U1,14,PB0*%
%TO.N,unconnected-(U1-Pad14)*%
X153781802Y-120926802D03*
%TO.P,U1,13,PD7*%
%TO.N,unconnected-(U1-Pad13)*%
X153781802Y-118386802D03*
%TO.P,U1,12,PD6*%
%TO.N,unconnected-(U1-Pad12)*%
X153781802Y-115846802D03*
%TO.P,U1,11,PD5*%
%TO.N,Net-(J2-Pad1)*%
X153781802Y-113306802D03*
%TO.P,U1,10,XTAL2/PB7*%
%TO.N,Net-(C2-Pad1)*%
X153781802Y-110766802D03*
%TO.P,U1,9,XTAL1/PB6*%
%TO.N,Net-(C1-Pad1)*%
X153781802Y-108226802D03*
%TO.P,U1,8,GND*%
%TO.N,GND*%
X153781802Y-105686802D03*
%TO.P,U1,7,VCC*%
%TO.N,Net-(D1-Pad2)*%
X153781802Y-103146802D03*
%TO.P,U1,6,PD4*%
%TO.N,Net-(J2-Pad2)*%
X153781802Y-100606802D03*
%TO.P,U1,5,PD3*%
%TO.N,Net-(J2-Pad3)*%
X153781802Y-98066802D03*
%TO.P,U1,4,PD2*%
%TO.N,Net-(U1-Pad4)*%
X153781802Y-95526802D03*
%TO.P,U1,3,PD1*%
%TO.N,Net-(R1-Pad1)*%
X153781802Y-92986802D03*
%TO.P,U1,2,PD0*%
%TO.N,Net-(U1-Pad2)*%
X153781802Y-90446802D03*
D11*
%TO.P,U1,1,~{RESET}/PC6*%
%TO.N,Net-(R3-Pad1)*%
X153781802Y-87906802D03*
%TD*%
D12*
%TO.P,Y1,1,1*%
%TO.N,Net-(C1-Pad1)*%
X146381802Y-129781802D03*
%TO.P,Y1,2,2*%
%TO.N,Net-(C2-Pad1)*%
X151281802Y-129781802D03*
%TD*%
D13*
%TO.P,R3,1*%
%TO.N,Net-(R3-Pad1)*%
X140881802Y-78901802D03*
D14*
%TO.P,R3,2*%
%TO.N,Net-(D1-Pad2)*%
X140881802Y-89061802D03*
%TD*%
D15*
%TO.P,VR1,1,IN*%
%TO.N,Net-(J1-Pad1)*%
X123401802Y-94971802D03*
D16*
%TO.P,VR1,2,GND*%
%TO.N,GND*%
X123401802Y-92431802D03*
%TO.P,VR1,3,OUT*%
%TO.N,Net-(D1-Pad2)*%
X123401802Y-89891802D03*
%TD*%
D17*
%TO.P,SW1,1,1*%
%TO.N,GND*%
X129081802Y-81781802D03*
X135581802Y-81781802D03*
%TO.P,SW1,2,2*%
%TO.N,Net-(R3-Pad1)*%
X129081802Y-86281802D03*
X135581802Y-86281802D03*
%TD*%
D13*
%TO.P,R1,1*%
%TO.N,Net-(R1-Pad1)*%
X146631802Y-90901802D03*
D14*
%TO.P,R1,2*%
%TO.N,Net-(Q1-Pad2)*%
X146631802Y-101061802D03*
%TD*%
D18*
%TO.P,U4,1,A0*%
%TO.N,GND*%
X131231802Y-112781802D03*
D14*
%TO.P,U4,2,A1*%
X131231802Y-110241802D03*
%TO.P,U4,3,A2*%
%TO.N,Net-(D1-Pad2)*%
X131231802Y-107701802D03*
%TO.P,U4,4,GND*%
%TO.N,GND*%
X131231802Y-105161802D03*
%TO.P,U4,5,SDA*%
%TO.N,Net-(DISPLAY1-Pad4)*%
X123611802Y-105161802D03*
%TO.P,U4,6,SCL*%
%TO.N,Net-(DISPLAY1-Pad3)*%
X123611802Y-107701802D03*
%TO.P,U4,7,WP*%
%TO.N,GND*%
X123611802Y-110241802D03*
%TO.P,U4,8,VCC*%
%TO.N,Net-(D1-Pad2)*%
X123611802Y-112781802D03*
%TD*%
D15*
%TO.P,J1,1,Pin_1*%
%TO.N,Net-(J1-Pad1)*%
X119281802Y-101531802D03*
D16*
%TO.P,J1,2,Pin_2*%
%TO.N,GND*%
X119281802Y-98991802D03*
%TD*%
D19*
%TO.P,DISPLAY1,1,GND*%
%TO.N,GND*%
X148871802Y-82201802D03*
D20*
%TO.P,DISPLAY1,2,VCC*%
%TO.N,Net-(D1-Pad2)*%
X151411802Y-82201802D03*
%TO.P,DISPLAY1,3,SCL*%
%TO.N,Net-(DISPLAY1-Pad3)*%
X153951802Y-82201802D03*
%TO.P,DISPLAY1,4,SDA*%
%TO.N,Net-(DISPLAY1-Pad4)*%
X156491802Y-82201802D03*
%TD*%
D13*
%TO.P,C1,1,1*%
%TO.N,Net-(C1-Pad1)*%
X144131802Y-124731802D03*
%TO.P,C1,2,2*%
%TO.N,GND*%
X149131802Y-124731802D03*
%TD*%
D21*
%TO.P,D1,1,K*%
%TO.N,Net-(D1-Pad1)*%
X167631802Y-107381802D03*
D22*
%TO.P,D1,2,A*%
%TO.N,Net-(D1-Pad2)*%
X165091802Y-107381802D03*
%TD*%
D13*
%TO.P,C2,1,1*%
%TO.N,Net-(C2-Pad1)*%
X156931802Y-124731802D03*
%TO.P,C2,2,2*%
%TO.N,GND*%
X151931802Y-124731802D03*
%TD*%
D15*
%TO.P,J2,1,Pin_1*%
%TO.N,Net-(J2-Pad1)*%
X166651802Y-101111802D03*
D16*
%TO.P,J2,2,Pin_2*%
%TO.N,Net-(J2-Pad2)*%
X166651802Y-98571802D03*
%TO.P,J2,3,Pin_3*%
%TO.N,Net-(J2-Pad3)*%
X166651802Y-96031802D03*
%TO.P,J2,4,Pin_4*%
%TO.N,Net-(D1-Pad2)*%
X166651802Y-93491802D03*
%TO.P,J2,5,Pin_5*%
%TO.N,GND*%
X166651802Y-90951802D03*
%TD*%
D13*
%TO.P,R5,1*%
%TO.N,Net-(DISPLAY1-Pad3)*%
X141381802Y-96331802D03*
D14*
%TO.P,R5,2*%
%TO.N,Net-(D1-Pad2)*%
X131221802Y-96331802D03*
%TD*%
D21*
%TO.P,D2,1*%
%TO.N,Net-(D2-PadA)*%
X147531802Y-111731802D03*
D22*
%TO.P,D2,2*%
%TO.N,Net-(D1-Pad2)*%
X144991802Y-111731802D03*
%TD*%
D13*
%TO.P,R2,1*%
%TO.N,Net-(D1-Pad1)*%
X171781802Y-100881802D03*
D14*
%TO.P,R2,2*%
%TO.N,Net-(R2-Pad2)*%
X171781802Y-111041802D03*
%TD*%
D23*
%TO.P,U3,1,OUT*%
%TO.N,Net-(U1-Pad4)*%
X141181802Y-112481802D03*
D22*
%TO.P,U3,2,GND*%
%TO.N,GND*%
X138641802Y-112481802D03*
%TO.P,U3,3,Vs*%
%TO.N,Net-(D1-Pad2)*%
X136101802Y-112481802D03*
%TD*%
D24*
%TO.P,Q1,1,C*%
%TO.N,Net-(D2-PadA)*%
X139050000Y-102250000D03*
D25*
%TO.P,Q1,2,B*%
%TO.N,Net-(Q1-Pad2)*%
X140320000Y-103520000D03*
%TO.P,Q1,3,E*%
%TO.N,GND*%
X139050000Y-104790000D03*
%TD*%
D13*
%TO.P,R4,1*%
%TO.N,Net-(DISPLAY1-Pad4)*%
X141281802Y-92931802D03*
D14*
%TO.P,R4,2*%
%TO.N,Net-(D1-Pad2)*%
X131121802Y-92931802D03*
%TD*%
D26*
%TO.P,U2,1,VCC*%
%TO.N,Net-(D1-Pad2)*%
X139969302Y-118484302D03*
D12*
%TO.P,U2,2,IO*%
%TO.N,Net-(U1-Pad2)*%
X142509302Y-118484302D03*
%TO.P,U2,3,NC*%
%TO.N,unconnected-(U2-Pad3)*%
X145049302Y-118484302D03*
%TO.P,U2,4,GND*%
%TO.N,GND*%
X147589302Y-118484302D03*
%TD*%
D27*
%TO.N,Net-(J2-Pad3)*%
X153781802Y-98066802D02*
X154181802Y-98066802D01*
X154181802Y-98066802D02*
X155881802Y-96366802D01*
X155881802Y-96366802D02*
X155881802Y-85539960D01*
%TO.N,GND*%
X123401802Y-92431802D02*
X123176802Y-92431802D01*
X128783644Y-81781802D02*
X129081802Y-81781802D01*
%TO.N,Net-(J2-Pad1)*%
X153781802Y-113306802D02*
X154181802Y-113306802D01*
%TO.N,Net-(J2-Pad3)*%
X166651802Y-96031802D02*
X166876802Y-96031802D01*
%TO.N,Net-(J2-Pad2)*%
X166321802Y-98571802D02*
X166651802Y-98571802D01*
X153781802Y-100606802D02*
X154181802Y-100606802D01*
%TO.N,Net-(D1-Pad2)*%
X153781802Y-103146802D02*
X152946802Y-103146802D01*
X131321802Y-107701802D02*
X131231802Y-107701802D01*
X151411802Y-82753148D02*
X151411802Y-82201802D01*
%TO.N,GND*%
X122473148Y-98991802D02*
X125396802Y-96068148D01*
X156213198Y-105686802D02*
X158753198Y-103146802D01*
X123611802Y-110241802D02*
X119931802Y-113921802D01*
X124931802Y-92431802D02*
X123401802Y-92431802D01*
X125396802Y-92896802D02*
X124931802Y-92431802D01*
X138114594Y-114281802D02*
X132731802Y-114281802D01*
X123611802Y-110241802D02*
X126151802Y-112781802D01*
X125396802Y-96068148D02*
X125396802Y-92896802D01*
X121406802Y-89158644D02*
X128783644Y-81781802D01*
X121406802Y-90661802D02*
X121406802Y-89158644D01*
X151931802Y-124731802D02*
X149131802Y-124731802D01*
X131231802Y-105161802D02*
X128818277Y-107575327D01*
X149738199Y-116335405D02*
X147589302Y-118484302D01*
X121276802Y-99826802D02*
X120441802Y-98991802D01*
X140731802Y-76631802D02*
X145731802Y-76631802D01*
X149738199Y-109330405D02*
X149738199Y-116335405D01*
X158753198Y-103146802D02*
X161401802Y-103146802D01*
X120441802Y-98991802D02*
X119281802Y-98991802D01*
X129081802Y-81781802D02*
X135581802Y-81781802D01*
X121276802Y-107906802D02*
X121276802Y-99826802D01*
X138641802Y-113754594D02*
X138114594Y-114281802D01*
X145731802Y-76631802D02*
X148871802Y-79771802D01*
X139050000Y-104790000D02*
X131603604Y-104790000D01*
X128818277Y-107575327D02*
X128818277Y-110368277D01*
X148871802Y-79771802D02*
X148871802Y-82201802D01*
X126151802Y-112781802D02*
X131231802Y-112781802D01*
X132731802Y-114281802D02*
X131231802Y-112781802D01*
X119931802Y-113921802D02*
X119931802Y-118283022D01*
X149131802Y-124731802D02*
X149131802Y-120026802D01*
X119931802Y-118283022D02*
X124648780Y-123000000D01*
X153381802Y-105686802D02*
X149738199Y-109330405D01*
X147400000Y-123000000D02*
X149131802Y-124731802D01*
X131231802Y-112781802D02*
X131231802Y-110241802D01*
X124648780Y-123000000D02*
X147400000Y-123000000D01*
X135581802Y-81781802D02*
X140731802Y-76631802D01*
X119281802Y-98991802D02*
X122473148Y-98991802D01*
X153781802Y-105686802D02*
X156213198Y-105686802D01*
X138641802Y-112481802D02*
X138641802Y-113754594D01*
X149131802Y-120026802D02*
X147589302Y-118484302D01*
X123611802Y-110241802D02*
X121276802Y-107906802D01*
X123176802Y-92431802D02*
X121406802Y-90661802D01*
X128818277Y-110368277D02*
X131231802Y-112781802D01*
X131603604Y-104790000D02*
X131231802Y-105161802D01*
%TO.N,Net-(DISPLAY1-Pad4)*%
X156491802Y-83232904D02*
X153874706Y-85850000D01*
X145011802Y-89201802D02*
X141281802Y-92931802D01*
X148498198Y-89201802D02*
X145011802Y-89201802D01*
X153874706Y-85850000D02*
X151850000Y-85850000D01*
X151850000Y-85850000D02*
X148498198Y-89201802D01*
X156491802Y-82201802D02*
X156491802Y-83232904D01*
%TO.N,Net-(C1-Pad1)*%
X146381802Y-126981802D02*
X144131802Y-124731802D01*
X146381802Y-129781802D02*
X146381802Y-126981802D01*
%TO.N,Net-(C2-Pad1)*%
X151281802Y-129781802D02*
X156331802Y-124731802D01*
X156331802Y-124731802D02*
X156931802Y-124731802D01*
%TO.N,Net-(DISPLAY1-Pad3)*%
X139581802Y-92218198D02*
X141038198Y-90761802D01*
X139581802Y-94531802D02*
X139581802Y-92218198D01*
X144514746Y-88001802D02*
X148001142Y-88001802D01*
X148001142Y-88001802D02*
X151352944Y-84650000D01*
X153377650Y-84650000D02*
X153951802Y-84075848D01*
X141038198Y-90761802D02*
X141754746Y-90761802D01*
X141381802Y-96331802D02*
X139581802Y-94531802D01*
X151352944Y-84650000D02*
X153377650Y-84650000D01*
X141754746Y-90761802D02*
X144514746Y-88001802D01*
X153951802Y-84075848D02*
X153951802Y-82201802D01*
%TO.N,Net-(J2-Pad1)*%
X159301802Y-118426802D02*
X159301802Y-121751802D01*
X164688022Y-122626802D02*
X169031802Y-118283022D01*
X154181802Y-113306802D02*
X159301802Y-118426802D01*
X169431802Y-103891802D02*
X166651802Y-101111802D01*
X163700000Y-109181802D02*
X169431802Y-109181802D01*
X169031802Y-118283022D02*
X169031802Y-115880582D01*
X169431802Y-109181802D02*
X169431802Y-103891802D01*
X160176802Y-122626802D02*
X164688022Y-122626802D01*
X164930582Y-114181802D02*
X163700000Y-112951220D01*
X167333022Y-114181802D02*
X164930582Y-114181802D01*
X159301802Y-121751802D02*
X160176802Y-122626802D01*
X163700000Y-112951220D02*
X163700000Y-109181802D01*
X169031802Y-115880582D02*
X167333022Y-114181802D01*
%TO.N,Net-(J2-Pad2)*%
X154181802Y-100606802D02*
X159301802Y-95486802D01*
X159301802Y-95486802D02*
X159301802Y-87098198D01*
X160193198Y-86206802D02*
X162556802Y-86206802D01*
X162556802Y-86206802D02*
X164650000Y-88300000D01*
X164650000Y-88300000D02*
X164650000Y-96900000D01*
X164650000Y-96900000D02*
X166321802Y-98571802D01*
X159301802Y-87098198D02*
X160193198Y-86206802D01*
%TO.N,Net-(J2-Pad3)*%
X158421762Y-83000000D02*
X155881802Y-85539960D01*
X168646802Y-89646802D02*
X162000000Y-83000000D01*
X168646802Y-94261802D02*
X168646802Y-89646802D01*
X166876802Y-96031802D02*
X168646802Y-94261802D01*
X162000000Y-83000000D02*
X158421762Y-83000000D01*
%TO.N,Net-(R1-Pad1)*%
X146631802Y-90901802D02*
X148716802Y-92986802D01*
X148716802Y-92986802D02*
X153781802Y-92986802D01*
%TO.N,Net-(J1-Pad1)*%
X116200000Y-97300000D02*
X118528198Y-94971802D01*
X118528198Y-94971802D02*
X123401802Y-94971802D01*
X117881802Y-101531802D02*
X116200000Y-99850000D01*
X119281802Y-101531802D02*
X117881802Y-101531802D01*
X116200000Y-99850000D02*
X116200000Y-97300000D01*
%TO.N,Net-(D1-Pad2)*%
X133635327Y-98745327D02*
X148545327Y-98745327D01*
X129314302Y-118484302D02*
X123611802Y-112781802D01*
X151981802Y-103146802D02*
X144991802Y-110136802D01*
X153781802Y-103146802D02*
X151981802Y-103146802D01*
X136101802Y-109948198D02*
X136101802Y-112481802D01*
X139969302Y-118484302D02*
X129314302Y-118484302D01*
X144991802Y-111731802D02*
X142360000Y-109100000D01*
X144991802Y-110136802D02*
X144991802Y-111731802D01*
X139969302Y-116754302D02*
X139969302Y-118484302D01*
X140881802Y-89061802D02*
X145746802Y-84196802D01*
X131221802Y-96331802D02*
X133635327Y-98745327D01*
X142360000Y-109100000D02*
X136950000Y-109100000D01*
X145746802Y-84196802D02*
X149968148Y-84196802D01*
X136101802Y-112481802D02*
X131321802Y-107701802D01*
X149968148Y-84196802D02*
X151411802Y-82753148D01*
X136950000Y-109100000D02*
X136101802Y-109948198D01*
X144991802Y-111731802D02*
X139969302Y-116754302D01*
X152946802Y-103146802D02*
X148545327Y-98745327D01*
%TD*%
M02*
