M48
; DRILL file {KiCad (6.0.7-1)-1} date 2022 October 28, Friday 21:41:40
; FORMAT={-:-/ absolute / inch / decimal}
; #@! TF.CreationDate,2022-10-28T21:41:40+05:30
; #@! TF.GenerationSoftware,Kicad,Pcbnew,(6.0.7-1)-1
; #@! TF.FileFunction,MixedPlating,1,2
FMAT,2
INCH
; #@! TA.AperFunction,Plated,PTH,ComponentDrill
T1C0.0295
; #@! TA.AperFunction,Plated,PTH,ComponentDrill
T2C0.0315
; #@! TA.AperFunction,Plated,PTH,ComponentDrill
T3C0.0354
; #@! TA.AperFunction,Plated,PTH,ComponentDrill
T4C0.0433
; #@! TA.AperFunction,Plated,PTH,ComponentDrill
T5C0.0469
%
G90
G05
T1
X5.4744Y-4.0256
X5.4744Y-4.1256
X5.5244Y-4.0756
T2
X4.8666Y-4.1402
X4.8666Y-4.2402
X4.8666Y-4.3402
X4.8666Y-4.4402
X5.1623Y-3.6587
X5.1662Y-3.7926
X5.1666Y-4.1402
X5.1666Y-4.2402
X5.1666Y-4.3402
X5.1666Y-4.4402
X5.5106Y-4.6647
X5.5465Y-3.1064
X5.5465Y-3.5064
X5.5623Y-3.6587
X5.5662Y-3.7926
X5.6106Y-4.6647
X5.6745Y-4.9107
X5.7106Y-4.6647
X5.7631Y-5.1095
X5.7729Y-3.5788
X5.7729Y-3.9788
X5.8106Y-4.6647
X5.8713Y-4.9107
X5.956Y-5.1095
X5.9816Y-4.9107
X6.0544Y-3.4609
X6.0544Y-3.5609
X6.0544Y-3.6609
X6.0544Y-3.7609
X6.0544Y-3.8609
X6.0544Y-3.9609
X6.0544Y-4.0609
X6.0544Y-4.1609
X6.0544Y-4.2609
X6.0544Y-4.3609
X6.0544Y-4.4609
X6.0544Y-4.5609
X6.0544Y-4.6609
X6.0544Y-4.7609
X6.1784Y-4.9107
X6.3544Y-3.4609
X6.3544Y-3.5609
X6.3544Y-3.6609
X6.3544Y-3.7609
X6.3544Y-3.8609
X6.3544Y-3.9609
X6.3544Y-4.0609
X6.3544Y-4.1609
X6.3544Y-4.2609
X6.3544Y-4.3609
X6.3544Y-4.4609
X6.3544Y-4.5609
X6.3544Y-4.6609
X6.3544Y-4.7609
X6.7631Y-3.9717
X6.7631Y-4.3717
T3
X5.3583Y-4.4284
X5.4583Y-4.4284
X5.5583Y-4.4284
X5.7083Y-4.3989
X5.8083Y-4.3989
X6.4997Y-4.2276
X6.5997Y-4.2276
T4
X5.082Y-3.2198
X5.082Y-3.3969
X5.3379Y-3.2198
X5.3379Y-3.3969
T5
X4.6961Y-3.8973
X4.6961Y-3.9973
X4.8583Y-3.539
X4.8583Y-3.639
X4.8583Y-3.739
X5.8611Y-3.2363
X5.9611Y-3.2363
X6.0611Y-3.2363
X6.1611Y-3.2363
X6.5611Y-3.5808
X6.5611Y-3.6808
X6.5611Y-3.7808
X6.5611Y-3.8808
X6.5611Y-3.9808
T0
M30
