%TF.GenerationSoftware,KiCad,Pcbnew,(6.0.7-1)-1*%
%TF.CreationDate,2022-10-19T21:48:05+05:30*%
%TF.ProjectId,Ac Temp Control V2,41632054-656d-4702-9043-6f6e74726f6c,rev?*%
%TF.SameCoordinates,Original*%
%TF.FileFunction,Other,User*%
%FSLAX46Y46*%
G04 Gerber Fmt 4.6, Leading zero omitted, Abs format (unit mm)*
G04 Created by KiCad (PCBNEW (6.0.7-1)-1) date 2022-10-19 21:48:05*
%MOMM*%
%LPD*%
G01*
G04 APERTURE LIST*
%ADD10C,0.050000*%
G04 APERTURE END LIST*
D10*
%TO.C,U1*%
X162931802Y-86306802D02*
X152231802Y-86306802D01*
X162931802Y-122556802D02*
X162931802Y-86306802D01*
X152231802Y-122556802D02*
X162931802Y-122556802D01*
X152231802Y-86306802D02*
X152231802Y-122556802D01*
%TO.C,Y1*%
X154781802Y-132581802D02*
X154781802Y-126981802D01*
X142881802Y-132581802D02*
X154781802Y-132581802D01*
X154781802Y-126981802D02*
X142881802Y-126981802D01*
X142881802Y-126981802D02*
X142881802Y-132581802D01*
%TO.C,R3*%
X142381802Y-77851802D02*
X139381802Y-77851802D01*
X139381802Y-90111802D02*
X142381802Y-90111802D01*
X139381802Y-77851802D02*
X139381802Y-90111802D01*
X142381802Y-90111802D02*
X142381802Y-77851802D01*
%TO.C,VR1*%
X119981802Y-88121802D02*
X119981802Y-96741802D01*
X126781802Y-88121802D02*
X119981802Y-88121802D01*
X119981802Y-96741802D02*
X126781802Y-96741802D01*
X126781802Y-96741802D02*
X126781802Y-88121802D01*
%TO.C,SW1*%
X137081802Y-87781802D02*
X137081802Y-87531802D01*
X137081802Y-80281802D02*
X137081802Y-80531802D01*
X127581802Y-87531802D02*
X127581802Y-87781802D01*
X127581802Y-80281802D02*
X127831802Y-80281802D01*
X136831802Y-87781802D02*
X137081802Y-87781802D01*
X137081802Y-80531802D02*
X137081802Y-87531802D01*
X136831802Y-80281802D02*
X137081802Y-80281802D01*
X127581802Y-87531802D02*
X127581802Y-80531802D01*
X127581802Y-87781802D02*
X127831802Y-87781802D01*
X127581802Y-80531802D02*
X127581802Y-80281802D01*
X127831802Y-80281802D02*
X136831802Y-80281802D01*
X136831802Y-87781802D02*
X127831802Y-87781802D01*
%TO.C,R1*%
X148131802Y-102111802D02*
X148131802Y-89851802D01*
X145131802Y-102111802D02*
X148131802Y-102111802D01*
X148131802Y-89851802D02*
X145131802Y-89851802D01*
X145131802Y-89851802D02*
X145131802Y-102111802D01*
%TO.C,U4*%
X122081802Y-103581802D02*
X122081802Y-114381802D01*
X132781802Y-103581802D02*
X122081802Y-103581802D01*
X132781802Y-114381802D02*
X132781802Y-103581802D01*
X122081802Y-114381802D02*
X132781802Y-114381802D01*
%TO.C,J1*%
X122661802Y-97221802D02*
X115861802Y-97221802D01*
X122661802Y-103301802D02*
X122661802Y-97221802D01*
X115861802Y-103301802D02*
X122661802Y-103301802D01*
X115861802Y-97221802D02*
X115861802Y-103301802D01*
%TO.C,DISPLAY1*%
X158261802Y-85581802D02*
X158261802Y-78781802D01*
X147101802Y-78781802D02*
X147101802Y-85581802D01*
X158261802Y-78781802D02*
X147101802Y-78781802D01*
X147101802Y-85581802D02*
X158261802Y-85581802D01*
%TO.C,C1*%
X150181802Y-123231802D02*
X143081802Y-123231802D01*
X150181802Y-126231802D02*
X150181802Y-123231802D01*
X143081802Y-126231802D02*
X150181802Y-126231802D01*
X143081802Y-123231802D02*
X143081802Y-126231802D01*
%TO.C,D1*%
X163131802Y-104131802D02*
X163131802Y-110631802D01*
X169581802Y-110631802D02*
X169581802Y-104131802D01*
X169581802Y-104131802D02*
X163131802Y-104131802D01*
X163131802Y-110631802D02*
X169581802Y-110631802D01*
%TO.C,C2*%
X150881802Y-123231802D02*
X150881802Y-126231802D01*
X150881802Y-126231802D02*
X157981802Y-126231802D01*
X157981802Y-123231802D02*
X150881802Y-123231802D01*
X157981802Y-126231802D02*
X157981802Y-123231802D01*
%TO.C,J2*%
X170031802Y-102881802D02*
X170031802Y-89181802D01*
X163231802Y-102881802D02*
X170031802Y-102881802D01*
X170031802Y-89181802D02*
X163231802Y-89181802D01*
X163231802Y-89181802D02*
X163231802Y-102881802D01*
%TO.C,R5*%
X130171802Y-94831802D02*
X130171802Y-97831802D01*
X130171802Y-97831802D02*
X142431802Y-97831802D01*
X142431802Y-97831802D02*
X142431802Y-94831802D01*
X142431802Y-94831802D02*
X130171802Y-94831802D01*
%TO.C,D2*%
X149481802Y-108481802D02*
X143031802Y-108481802D01*
X149481802Y-114981802D02*
X149481802Y-108481802D01*
X143031802Y-114981802D02*
X149481802Y-114981802D01*
X143031802Y-108481802D02*
X143031802Y-114981802D01*
%TO.C,R2*%
X173281802Y-99831802D02*
X170281802Y-99831802D01*
X170281802Y-99831802D02*
X170281802Y-112091802D01*
X173281802Y-112091802D02*
X173281802Y-99831802D01*
X170281802Y-112091802D02*
X173281802Y-112091802D01*
%TO.C,U3*%
X142331802Y-114131802D02*
X134951802Y-114131802D01*
X142331802Y-114131802D02*
X142331802Y-108781802D01*
X134951802Y-108781802D02*
X142331802Y-108781802D01*
X134951802Y-108781802D02*
X134951802Y-114131802D01*
%TO.C,Q1*%
X141780000Y-100790000D02*
X141780000Y-106250000D01*
X137040000Y-106250000D02*
X137040000Y-100790000D01*
X141780000Y-100790000D02*
X137040000Y-100790000D01*
X137040000Y-106250000D02*
X141780000Y-106250000D01*
%TO.C,R4*%
X130071802Y-94431802D02*
X142331802Y-94431802D01*
X130071802Y-91431802D02*
X130071802Y-94431802D01*
X142331802Y-91431802D02*
X130071802Y-91431802D01*
X142331802Y-94431802D02*
X142331802Y-91431802D01*
%TO.C,U2*%
X150029302Y-121484302D02*
X137529302Y-121484302D01*
X137529302Y-115484302D02*
X150029302Y-115484302D01*
X150029302Y-115484302D02*
X150029302Y-121484302D01*
X137529302Y-121484302D02*
X137529302Y-115484302D01*
%TD*%
M02*
