%TF.GenerationSoftware,KiCad,Pcbnew,(6.0.7-1)-1*%
%TF.CreationDate,2022-10-28T21:41:43+05:30*%
%TF.ProjectId,Ac Temp Control V2,41632054-656d-4702-9043-6f6e74726f6c,rev?*%
%TF.SameCoordinates,Original*%
%TF.FileFunction,Drillmap*%
%TF.FilePolarity,Positive*%
%FSLAX45Y45*%
G04 Gerber Fmt 4.5, Leading zero omitted, Abs format (unit mm)*
G04 Created by KiCad (PCBNEW (6.0.7-1)-1) date 2022-10-28 21:41:43*
%MOMM*%
%LPD*%
G01*
G04 APERTURE LIST*
%ADD10C,0.100000*%
%ADD11C,0.150000*%
%ADD12C,0.200000*%
%ADD13C,0.075000*%
%ADD14C,0.080000*%
%ADD15C,0.090000*%
%ADD16C,0.110000*%
%ADD17C,0.119000*%
G04 APERTURE END LIST*
D10*
X16813180Y-11708180D02*
G75*
G03*
X16813180Y-11708180I-200000J0D01*
G01*
X14648180Y-10453180D02*
G75*
G03*
X14648180Y-10453180I-200000J0D01*
G01*
X12483180Y-11708180D02*
G75*
G03*
X12483180Y-11708180I-200000J0D01*
G01*
X14648180Y-7953180D02*
G75*
G03*
X14648180Y-7953180I-200000J0D01*
G01*
X18935000Y-6470000D02*
G75*
G03*
X18935000Y-6470000I0J0D01*
G01*
D11*
X17448180Y-10453180D02*
G75*
G03*
X17448180Y-10453180I-3000000J0D01*
G01*
D12*
D13*
X13867500Y-10187500D02*
X13942500Y-10262500D01*
X13942500Y-10187500D02*
X13867500Y-10262500D01*
X13867500Y-10441500D02*
X13942500Y-10516500D01*
X13942500Y-10441500D02*
X13867500Y-10516500D01*
X13994500Y-10314500D02*
X14069500Y-10389500D01*
X14069500Y-10314500D02*
X13994500Y-10389500D01*
D14*
X12401180Y-10516180D02*
G75*
G03*
X12401180Y-10516180I-40000J0D01*
G01*
X12401180Y-10770180D02*
G75*
G03*
X12401180Y-10770180I-40000J0D01*
G01*
X12401180Y-11024180D02*
G75*
G03*
X12401180Y-11024180I-40000J0D01*
G01*
X12401180Y-11278180D02*
G75*
G03*
X12401180Y-11278180I-40000J0D01*
G01*
X13152180Y-9293180D02*
G75*
G03*
X13152180Y-9293180I-40000J0D01*
G01*
X13162180Y-9633180D02*
G75*
G03*
X13162180Y-9633180I-40000J0D01*
G01*
X13163180Y-10516180D02*
G75*
G03*
X13163180Y-10516180I-40000J0D01*
G01*
X13163180Y-10770180D02*
G75*
G03*
X13163180Y-10770180I-40000J0D01*
G01*
X13163180Y-11024180D02*
G75*
G03*
X13163180Y-11024180I-40000J0D01*
G01*
X13163180Y-11278180D02*
G75*
G03*
X13163180Y-11278180I-40000J0D01*
G01*
X14036930Y-11848430D02*
G75*
G03*
X14036930Y-11848430I-40000J0D01*
G01*
X14128180Y-7890180D02*
G75*
G03*
X14128180Y-7890180I-40000J0D01*
G01*
X14128180Y-8906180D02*
G75*
G03*
X14128180Y-8906180I-40000J0D01*
G01*
X14168180Y-9293180D02*
G75*
G03*
X14168180Y-9293180I-40000J0D01*
G01*
X14178180Y-9633180D02*
G75*
G03*
X14178180Y-9633180I-40000J0D01*
G01*
X14290930Y-11848430D02*
G75*
G03*
X14290930Y-11848430I-40000J0D01*
G01*
X14453180Y-12473180D02*
G75*
G03*
X14453180Y-12473180I-40000J0D01*
G01*
X14544930Y-11848430D02*
G75*
G03*
X14544930Y-11848430I-40000J0D01*
G01*
X14678180Y-12978180D02*
G75*
G03*
X14678180Y-12978180I-40000J0D01*
G01*
X14703180Y-9090180D02*
G75*
G03*
X14703180Y-9090180I-40000J0D01*
G01*
X14703180Y-10106180D02*
G75*
G03*
X14703180Y-10106180I-40000J0D01*
G01*
X14798930Y-11848430D02*
G75*
G03*
X14798930Y-11848430I-40000J0D01*
G01*
X14953180Y-12473180D02*
G75*
G03*
X14953180Y-12473180I-40000J0D01*
G01*
X15168180Y-12978180D02*
G75*
G03*
X15168180Y-12978180I-40000J0D01*
G01*
X15233180Y-12473180D02*
G75*
G03*
X15233180Y-12473180I-40000J0D01*
G01*
X15418180Y-8790680D02*
G75*
G03*
X15418180Y-8790680I-40000J0D01*
G01*
X15418180Y-9044680D02*
G75*
G03*
X15418180Y-9044680I-40000J0D01*
G01*
X15418180Y-9298680D02*
G75*
G03*
X15418180Y-9298680I-40000J0D01*
G01*
X15418180Y-9552680D02*
G75*
G03*
X15418180Y-9552680I-40000J0D01*
G01*
X15418180Y-9806680D02*
G75*
G03*
X15418180Y-9806680I-40000J0D01*
G01*
X15418180Y-10060680D02*
G75*
G03*
X15418180Y-10060680I-40000J0D01*
G01*
X15418180Y-10314680D02*
G75*
G03*
X15418180Y-10314680I-40000J0D01*
G01*
X15418180Y-10568680D02*
G75*
G03*
X15418180Y-10568680I-40000J0D01*
G01*
X15418180Y-10822680D02*
G75*
G03*
X15418180Y-10822680I-40000J0D01*
G01*
X15418180Y-11076680D02*
G75*
G03*
X15418180Y-11076680I-40000J0D01*
G01*
X15418180Y-11330680D02*
G75*
G03*
X15418180Y-11330680I-40000J0D01*
G01*
X15418180Y-11584680D02*
G75*
G03*
X15418180Y-11584680I-40000J0D01*
G01*
X15418180Y-11838680D02*
G75*
G03*
X15418180Y-11838680I-40000J0D01*
G01*
X15418180Y-12092680D02*
G75*
G03*
X15418180Y-12092680I-40000J0D01*
G01*
X15733180Y-12473180D02*
G75*
G03*
X15733180Y-12473180I-40000J0D01*
G01*
X16180180Y-8790680D02*
G75*
G03*
X16180180Y-8790680I-40000J0D01*
G01*
X16180180Y-9044680D02*
G75*
G03*
X16180180Y-9044680I-40000J0D01*
G01*
X16180180Y-9298680D02*
G75*
G03*
X16180180Y-9298680I-40000J0D01*
G01*
X16180180Y-9552680D02*
G75*
G03*
X16180180Y-9552680I-40000J0D01*
G01*
X16180180Y-9806680D02*
G75*
G03*
X16180180Y-9806680I-40000J0D01*
G01*
X16180180Y-10060680D02*
G75*
G03*
X16180180Y-10060680I-40000J0D01*
G01*
X16180180Y-10314680D02*
G75*
G03*
X16180180Y-10314680I-40000J0D01*
G01*
X16180180Y-10568680D02*
G75*
G03*
X16180180Y-10568680I-40000J0D01*
G01*
X16180180Y-10822680D02*
G75*
G03*
X16180180Y-10822680I-40000J0D01*
G01*
X16180180Y-11076680D02*
G75*
G03*
X16180180Y-11076680I-40000J0D01*
G01*
X16180180Y-11330680D02*
G75*
G03*
X16180180Y-11330680I-40000J0D01*
G01*
X16180180Y-11584680D02*
G75*
G03*
X16180180Y-11584680I-40000J0D01*
G01*
X16180180Y-11838680D02*
G75*
G03*
X16180180Y-11838680I-40000J0D01*
G01*
X16180180Y-12092680D02*
G75*
G03*
X16180180Y-12092680I-40000J0D01*
G01*
X17218180Y-10088180D02*
G75*
G03*
X17218180Y-10088180I-40000J0D01*
G01*
X17218180Y-11104180D02*
G75*
G03*
X17218180Y-11104180I-40000J0D01*
G01*
D15*
X13610180Y-11203180D02*
X13610180Y-11293180D01*
X13565180Y-11248180D02*
X13655180Y-11248180D01*
X13864180Y-11203180D02*
X13864180Y-11293180D01*
X13819180Y-11248180D02*
X13909180Y-11248180D01*
X14118180Y-11203180D02*
X14118180Y-11293180D01*
X14073180Y-11248180D02*
X14163180Y-11248180D01*
X14499180Y-11128180D02*
X14499180Y-11218180D01*
X14454180Y-11173180D02*
X14544180Y-11173180D01*
X14753180Y-11128180D02*
X14753180Y-11218180D01*
X14708180Y-11173180D02*
X14798180Y-11173180D01*
X16509180Y-10693180D02*
X16509180Y-10783180D01*
X16464180Y-10738180D02*
X16554180Y-10738180D01*
X16763180Y-10693180D02*
X16763180Y-10783180D01*
X16718180Y-10738180D02*
X16808180Y-10738180D01*
D16*
X12947071Y-8217071D02*
X12947071Y-8139289D01*
X12869289Y-8139289D01*
X12869289Y-8217071D01*
X12947071Y-8217071D01*
X12947071Y-8667071D02*
X12947071Y-8589289D01*
X12869289Y-8589289D01*
X12869289Y-8667071D01*
X12947071Y-8667071D01*
X13597071Y-8217071D02*
X13597071Y-8139289D01*
X13519289Y-8139289D01*
X13519289Y-8217071D01*
X13597071Y-8217071D01*
X13597071Y-8667071D02*
X13597071Y-8589289D01*
X13519289Y-8589289D01*
X13519289Y-8667071D01*
X13597071Y-8667071D01*
D17*
X11928180Y-9958680D02*
X11987680Y-9899180D01*
X11928180Y-9839680D01*
X11868680Y-9899180D01*
X11928180Y-9958680D01*
X11928180Y-10212680D02*
X11987680Y-10153180D01*
X11928180Y-10093680D01*
X11868680Y-10153180D01*
X11928180Y-10212680D01*
X12340180Y-9048680D02*
X12399680Y-8989180D01*
X12340180Y-8929680D01*
X12280680Y-8989180D01*
X12340180Y-9048680D01*
X12340180Y-9302680D02*
X12399680Y-9243180D01*
X12340180Y-9183680D01*
X12280680Y-9243180D01*
X12340180Y-9302680D01*
X12340180Y-9556680D02*
X12399680Y-9497180D01*
X12340180Y-9437680D01*
X12280680Y-9497180D01*
X12340180Y-9556680D01*
X14887180Y-8279680D02*
X14946680Y-8220180D01*
X14887180Y-8160680D01*
X14827680Y-8220180D01*
X14887180Y-8279680D01*
X15141180Y-8279680D02*
X15200680Y-8220180D01*
X15141180Y-8160680D01*
X15081680Y-8220180D01*
X15141180Y-8279680D01*
X15395180Y-8279680D02*
X15454680Y-8220180D01*
X15395180Y-8160680D01*
X15335680Y-8220180D01*
X15395180Y-8279680D01*
X15649180Y-8279680D02*
X15708680Y-8220180D01*
X15649180Y-8160680D01*
X15589680Y-8220180D01*
X15649180Y-8279680D01*
X16665180Y-9154680D02*
X16724680Y-9095180D01*
X16665180Y-9035680D01*
X16605680Y-9095180D01*
X16665180Y-9154680D01*
X16665180Y-9408680D02*
X16724680Y-9349180D01*
X16665180Y-9289680D01*
X16605680Y-9349180D01*
X16665180Y-9408680D01*
X16665180Y-9662680D02*
X16724680Y-9603180D01*
X16665180Y-9543680D01*
X16605680Y-9603180D01*
X16665180Y-9662680D01*
X16665180Y-9916680D02*
X16724680Y-9857180D01*
X16665180Y-9797680D01*
X16605680Y-9857180D01*
X16665180Y-9916680D01*
X16665180Y-10170680D02*
X16724680Y-10111180D01*
X16665180Y-10051680D01*
X16605680Y-10111180D01*
X16665180Y-10170680D01*
D12*
X11698299Y-13771156D02*
X11698299Y-13571156D01*
X11745918Y-13571156D01*
X11774490Y-13580680D01*
X11793537Y-13599728D01*
X11803061Y-13618775D01*
X11812585Y-13656871D01*
X11812585Y-13685442D01*
X11803061Y-13723537D01*
X11793537Y-13742585D01*
X11774490Y-13761632D01*
X11745918Y-13771156D01*
X11698299Y-13771156D01*
X11898299Y-13771156D02*
X11898299Y-13637823D01*
X11898299Y-13675918D02*
X11907823Y-13656871D01*
X11917347Y-13647347D01*
X11936394Y-13637823D01*
X11955442Y-13637823D01*
X12022109Y-13771156D02*
X12022109Y-13637823D01*
X12022109Y-13571156D02*
X12012585Y-13580680D01*
X12022109Y-13590204D01*
X12031632Y-13580680D01*
X12022109Y-13571156D01*
X12022109Y-13590204D01*
X12145918Y-13771156D02*
X12126871Y-13761632D01*
X12117347Y-13742585D01*
X12117347Y-13571156D01*
X12250680Y-13771156D02*
X12231632Y-13761632D01*
X12222109Y-13742585D01*
X12222109Y-13571156D01*
X12479252Y-13771156D02*
X12479252Y-13571156D01*
X12545918Y-13714013D01*
X12612585Y-13571156D01*
X12612585Y-13771156D01*
X12793537Y-13771156D02*
X12793537Y-13666394D01*
X12784013Y-13647347D01*
X12764966Y-13637823D01*
X12726871Y-13637823D01*
X12707823Y-13647347D01*
X12793537Y-13761632D02*
X12774490Y-13771156D01*
X12726871Y-13771156D01*
X12707823Y-13761632D01*
X12698299Y-13742585D01*
X12698299Y-13723537D01*
X12707823Y-13704490D01*
X12726871Y-13694966D01*
X12774490Y-13694966D01*
X12793537Y-13685442D01*
X12888775Y-13637823D02*
X12888775Y-13837823D01*
X12888775Y-13647347D02*
X12907823Y-13637823D01*
X12945918Y-13637823D01*
X12964966Y-13647347D01*
X12974490Y-13656871D01*
X12984013Y-13675918D01*
X12984013Y-13733061D01*
X12974490Y-13752109D01*
X12964966Y-13761632D01*
X12945918Y-13771156D01*
X12907823Y-13771156D01*
X12888775Y-13761632D01*
X13069728Y-13752109D02*
X13079252Y-13761632D01*
X13069728Y-13771156D01*
X13060204Y-13761632D01*
X13069728Y-13752109D01*
X13069728Y-13771156D01*
X13069728Y-13647347D02*
X13079252Y-13656871D01*
X13069728Y-13666394D01*
X13060204Y-13656871D01*
X13069728Y-13647347D01*
X13069728Y-13666394D01*
D13*
X11365680Y-14063180D02*
X11440680Y-14138180D01*
X11440680Y-14063180D02*
X11365680Y-14138180D01*
D12*
X11736394Y-13991156D02*
X11755442Y-13991156D01*
X11774490Y-14000680D01*
X11784013Y-14010204D01*
X11793537Y-14029252D01*
X11803061Y-14067347D01*
X11803061Y-14114966D01*
X11793537Y-14153061D01*
X11784013Y-14172109D01*
X11774490Y-14181632D01*
X11755442Y-14191156D01*
X11736394Y-14191156D01*
X11717347Y-14181632D01*
X11707823Y-14172109D01*
X11698299Y-14153061D01*
X11688775Y-14114966D01*
X11688775Y-14067347D01*
X11698299Y-14029252D01*
X11707823Y-14010204D01*
X11717347Y-14000680D01*
X11736394Y-13991156D01*
X11888775Y-14172109D02*
X11898299Y-14181632D01*
X11888775Y-14191156D01*
X11879252Y-14181632D01*
X11888775Y-14172109D01*
X11888775Y-14191156D01*
X11964966Y-13991156D02*
X12098299Y-13991156D01*
X12012585Y-14191156D01*
X12269728Y-13991156D02*
X12174490Y-13991156D01*
X12164966Y-14086394D01*
X12174490Y-14076871D01*
X12193537Y-14067347D01*
X12241156Y-14067347D01*
X12260204Y-14076871D01*
X12269728Y-14086394D01*
X12279252Y-14105442D01*
X12279252Y-14153061D01*
X12269728Y-14172109D01*
X12260204Y-14181632D01*
X12241156Y-14191156D01*
X12193537Y-14191156D01*
X12174490Y-14181632D01*
X12164966Y-14172109D01*
X12403061Y-13991156D02*
X12422109Y-13991156D01*
X12441156Y-14000680D01*
X12450680Y-14010204D01*
X12460204Y-14029252D01*
X12469728Y-14067347D01*
X12469728Y-14114966D01*
X12460204Y-14153061D01*
X12450680Y-14172109D01*
X12441156Y-14181632D01*
X12422109Y-14191156D01*
X12403061Y-14191156D01*
X12384013Y-14181632D01*
X12374490Y-14172109D01*
X12364966Y-14153061D01*
X12355442Y-14114966D01*
X12355442Y-14067347D01*
X12364966Y-14029252D01*
X12374490Y-14010204D01*
X12384013Y-14000680D01*
X12403061Y-13991156D01*
X12555442Y-14191156D02*
X12555442Y-14057823D01*
X12555442Y-14076871D02*
X12564966Y-14067347D01*
X12584013Y-14057823D01*
X12612585Y-14057823D01*
X12631632Y-14067347D01*
X12641156Y-14086394D01*
X12641156Y-14191156D01*
X12641156Y-14086394D02*
X12650680Y-14067347D01*
X12669728Y-14057823D01*
X12698299Y-14057823D01*
X12717347Y-14067347D01*
X12726871Y-14086394D01*
X12726871Y-14191156D01*
X12822109Y-14191156D02*
X12822109Y-14057823D01*
X12822109Y-14076871D02*
X12831632Y-14067347D01*
X12850680Y-14057823D01*
X12879252Y-14057823D01*
X12898299Y-14067347D01*
X12907823Y-14086394D01*
X12907823Y-14191156D01*
X12907823Y-14086394D02*
X12917347Y-14067347D01*
X12936394Y-14057823D01*
X12964966Y-14057823D01*
X12984013Y-14067347D01*
X12993537Y-14086394D01*
X12993537Y-14191156D01*
X13384013Y-13981632D02*
X13212585Y-14238775D01*
X13641156Y-13991156D02*
X13660204Y-13991156D01*
X13679252Y-14000680D01*
X13688775Y-14010204D01*
X13698299Y-14029252D01*
X13707823Y-14067347D01*
X13707823Y-14114966D01*
X13698299Y-14153061D01*
X13688775Y-14172109D01*
X13679252Y-14181632D01*
X13660204Y-14191156D01*
X13641156Y-14191156D01*
X13622109Y-14181632D01*
X13612585Y-14172109D01*
X13603061Y-14153061D01*
X13593537Y-14114966D01*
X13593537Y-14067347D01*
X13603061Y-14029252D01*
X13612585Y-14010204D01*
X13622109Y-14000680D01*
X13641156Y-13991156D01*
X13793537Y-14172109D02*
X13803061Y-14181632D01*
X13793537Y-14191156D01*
X13784013Y-14181632D01*
X13793537Y-14172109D01*
X13793537Y-14191156D01*
X13926871Y-13991156D02*
X13945918Y-13991156D01*
X13964966Y-14000680D01*
X13974490Y-14010204D01*
X13984013Y-14029252D01*
X13993537Y-14067347D01*
X13993537Y-14114966D01*
X13984013Y-14153061D01*
X13974490Y-14172109D01*
X13964966Y-14181632D01*
X13945918Y-14191156D01*
X13926871Y-14191156D01*
X13907823Y-14181632D01*
X13898299Y-14172109D01*
X13888775Y-14153061D01*
X13879252Y-14114966D01*
X13879252Y-14067347D01*
X13888775Y-14029252D01*
X13898299Y-14010204D01*
X13907823Y-14000680D01*
X13926871Y-13991156D01*
X14069728Y-14010204D02*
X14079252Y-14000680D01*
X14098299Y-13991156D01*
X14145918Y-13991156D01*
X14164966Y-14000680D01*
X14174490Y-14010204D01*
X14184013Y-14029252D01*
X14184013Y-14048299D01*
X14174490Y-14076871D01*
X14060204Y-14191156D01*
X14184013Y-14191156D01*
X14279252Y-14191156D02*
X14317347Y-14191156D01*
X14336394Y-14181632D01*
X14345918Y-14172109D01*
X14364966Y-14143537D01*
X14374490Y-14105442D01*
X14374490Y-14029252D01*
X14364966Y-14010204D01*
X14355442Y-14000680D01*
X14336394Y-13991156D01*
X14298299Y-13991156D01*
X14279252Y-14000680D01*
X14269728Y-14010204D01*
X14260204Y-14029252D01*
X14260204Y-14076871D01*
X14269728Y-14095918D01*
X14279252Y-14105442D01*
X14298299Y-14114966D01*
X14336394Y-14114966D01*
X14355442Y-14105442D01*
X14364966Y-14095918D01*
X14374490Y-14076871D01*
X14555442Y-13991156D02*
X14460204Y-13991156D01*
X14450680Y-14086394D01*
X14460204Y-14076871D01*
X14479252Y-14067347D01*
X14526871Y-14067347D01*
X14545918Y-14076871D01*
X14555442Y-14086394D01*
X14564966Y-14105442D01*
X14564966Y-14153061D01*
X14555442Y-14172109D01*
X14545918Y-14181632D01*
X14526871Y-14191156D01*
X14479252Y-14191156D01*
X14460204Y-14181632D01*
X14450680Y-14172109D01*
X14641156Y-13991156D02*
X14641156Y-14029252D01*
X14717347Y-13991156D02*
X14717347Y-14029252D01*
X15012585Y-14267347D02*
X15003061Y-14257823D01*
X14984013Y-14229252D01*
X14974490Y-14210204D01*
X14964966Y-14181632D01*
X14955442Y-14134013D01*
X14955442Y-14095918D01*
X14964966Y-14048299D01*
X14974490Y-14019728D01*
X14984013Y-14000680D01*
X15003061Y-13972109D01*
X15012585Y-13962585D01*
X15069728Y-13991156D02*
X15193537Y-13991156D01*
X15126871Y-14067347D01*
X15155442Y-14067347D01*
X15174490Y-14076871D01*
X15184013Y-14086394D01*
X15193537Y-14105442D01*
X15193537Y-14153061D01*
X15184013Y-14172109D01*
X15174490Y-14181632D01*
X15155442Y-14191156D01*
X15098299Y-14191156D01*
X15079252Y-14181632D01*
X15069728Y-14172109D01*
X15431632Y-14191156D02*
X15431632Y-13991156D01*
X15517347Y-14191156D02*
X15517347Y-14086394D01*
X15507823Y-14067347D01*
X15488775Y-14057823D01*
X15460204Y-14057823D01*
X15441156Y-14067347D01*
X15431632Y-14076871D01*
X15641156Y-14191156D02*
X15622109Y-14181632D01*
X15612585Y-14172109D01*
X15603061Y-14153061D01*
X15603061Y-14095918D01*
X15612585Y-14076871D01*
X15622109Y-14067347D01*
X15641156Y-14057823D01*
X15669728Y-14057823D01*
X15688775Y-14067347D01*
X15698299Y-14076871D01*
X15707823Y-14095918D01*
X15707823Y-14153061D01*
X15698299Y-14172109D01*
X15688775Y-14181632D01*
X15669728Y-14191156D01*
X15641156Y-14191156D01*
X15822109Y-14191156D02*
X15803061Y-14181632D01*
X15793537Y-14162585D01*
X15793537Y-13991156D01*
X15974490Y-14181632D02*
X15955442Y-14191156D01*
X15917347Y-14191156D01*
X15898299Y-14181632D01*
X15888775Y-14162585D01*
X15888775Y-14086394D01*
X15898299Y-14067347D01*
X15917347Y-14057823D01*
X15955442Y-14057823D01*
X15974490Y-14067347D01*
X15984013Y-14086394D01*
X15984013Y-14105442D01*
X15888775Y-14124490D01*
X16060204Y-14181632D02*
X16079252Y-14191156D01*
X16117347Y-14191156D01*
X16136394Y-14181632D01*
X16145918Y-14162585D01*
X16145918Y-14153061D01*
X16136394Y-14134013D01*
X16117347Y-14124490D01*
X16088775Y-14124490D01*
X16069728Y-14114966D01*
X16060204Y-14095918D01*
X16060204Y-14086394D01*
X16069728Y-14067347D01*
X16088775Y-14057823D01*
X16117347Y-14057823D01*
X16136394Y-14067347D01*
X16212585Y-14267347D02*
X16222109Y-14257823D01*
X16241156Y-14229252D01*
X16250680Y-14210204D01*
X16260204Y-14181632D01*
X16269728Y-14134013D01*
X16269728Y-14095918D01*
X16260204Y-14048299D01*
X16250680Y-14019728D01*
X16241156Y-14000680D01*
X16222109Y-13972109D01*
X16212585Y-13962585D01*
D14*
X11440680Y-14364680D02*
G75*
G03*
X11440680Y-14364680I-40000J0D01*
G01*
D12*
X11736394Y-14255156D02*
X11755442Y-14255156D01*
X11774490Y-14264680D01*
X11784013Y-14274204D01*
X11793537Y-14293252D01*
X11803061Y-14331347D01*
X11803061Y-14378966D01*
X11793537Y-14417061D01*
X11784013Y-14436109D01*
X11774490Y-14445632D01*
X11755442Y-14455156D01*
X11736394Y-14455156D01*
X11717347Y-14445632D01*
X11707823Y-14436109D01*
X11698299Y-14417061D01*
X11688775Y-14378966D01*
X11688775Y-14331347D01*
X11698299Y-14293252D01*
X11707823Y-14274204D01*
X11717347Y-14264680D01*
X11736394Y-14255156D01*
X11888775Y-14436109D02*
X11898299Y-14445632D01*
X11888775Y-14455156D01*
X11879252Y-14445632D01*
X11888775Y-14436109D01*
X11888775Y-14455156D01*
X12012585Y-14340871D02*
X11993537Y-14331347D01*
X11984013Y-14321823D01*
X11974490Y-14302775D01*
X11974490Y-14293252D01*
X11984013Y-14274204D01*
X11993537Y-14264680D01*
X12012585Y-14255156D01*
X12050680Y-14255156D01*
X12069728Y-14264680D01*
X12079252Y-14274204D01*
X12088775Y-14293252D01*
X12088775Y-14302775D01*
X12079252Y-14321823D01*
X12069728Y-14331347D01*
X12050680Y-14340871D01*
X12012585Y-14340871D01*
X11993537Y-14350394D01*
X11984013Y-14359918D01*
X11974490Y-14378966D01*
X11974490Y-14417061D01*
X11984013Y-14436109D01*
X11993537Y-14445632D01*
X12012585Y-14455156D01*
X12050680Y-14455156D01*
X12069728Y-14445632D01*
X12079252Y-14436109D01*
X12088775Y-14417061D01*
X12088775Y-14378966D01*
X12079252Y-14359918D01*
X12069728Y-14350394D01*
X12050680Y-14340871D01*
X12212585Y-14255156D02*
X12231632Y-14255156D01*
X12250680Y-14264680D01*
X12260204Y-14274204D01*
X12269728Y-14293252D01*
X12279252Y-14331347D01*
X12279252Y-14378966D01*
X12269728Y-14417061D01*
X12260204Y-14436109D01*
X12250680Y-14445632D01*
X12231632Y-14455156D01*
X12212585Y-14455156D01*
X12193537Y-14445632D01*
X12184013Y-14436109D01*
X12174490Y-14417061D01*
X12164966Y-14378966D01*
X12164966Y-14331347D01*
X12174490Y-14293252D01*
X12184013Y-14274204D01*
X12193537Y-14264680D01*
X12212585Y-14255156D01*
X12403061Y-14255156D02*
X12422109Y-14255156D01*
X12441156Y-14264680D01*
X12450680Y-14274204D01*
X12460204Y-14293252D01*
X12469728Y-14331347D01*
X12469728Y-14378966D01*
X12460204Y-14417061D01*
X12450680Y-14436109D01*
X12441156Y-14445632D01*
X12422109Y-14455156D01*
X12403061Y-14455156D01*
X12384013Y-14445632D01*
X12374490Y-14436109D01*
X12364966Y-14417061D01*
X12355442Y-14378966D01*
X12355442Y-14331347D01*
X12364966Y-14293252D01*
X12374490Y-14274204D01*
X12384013Y-14264680D01*
X12403061Y-14255156D01*
X12555442Y-14455156D02*
X12555442Y-14321823D01*
X12555442Y-14340871D02*
X12564966Y-14331347D01*
X12584013Y-14321823D01*
X12612585Y-14321823D01*
X12631632Y-14331347D01*
X12641156Y-14350394D01*
X12641156Y-14455156D01*
X12641156Y-14350394D02*
X12650680Y-14331347D01*
X12669728Y-14321823D01*
X12698299Y-14321823D01*
X12717347Y-14331347D01*
X12726871Y-14350394D01*
X12726871Y-14455156D01*
X12822109Y-14455156D02*
X12822109Y-14321823D01*
X12822109Y-14340871D02*
X12831632Y-14331347D01*
X12850680Y-14321823D01*
X12879252Y-14321823D01*
X12898299Y-14331347D01*
X12907823Y-14350394D01*
X12907823Y-14455156D01*
X12907823Y-14350394D02*
X12917347Y-14331347D01*
X12936394Y-14321823D01*
X12964966Y-14321823D01*
X12984013Y-14331347D01*
X12993537Y-14350394D01*
X12993537Y-14455156D01*
X13384013Y-14245632D02*
X13212585Y-14502775D01*
X13641156Y-14255156D02*
X13660204Y-14255156D01*
X13679252Y-14264680D01*
X13688775Y-14274204D01*
X13698299Y-14293252D01*
X13707823Y-14331347D01*
X13707823Y-14378966D01*
X13698299Y-14417061D01*
X13688775Y-14436109D01*
X13679252Y-14445632D01*
X13660204Y-14455156D01*
X13641156Y-14455156D01*
X13622109Y-14445632D01*
X13612585Y-14436109D01*
X13603061Y-14417061D01*
X13593537Y-14378966D01*
X13593537Y-14331347D01*
X13603061Y-14293252D01*
X13612585Y-14274204D01*
X13622109Y-14264680D01*
X13641156Y-14255156D01*
X13793537Y-14436109D02*
X13803061Y-14445632D01*
X13793537Y-14455156D01*
X13784013Y-14445632D01*
X13793537Y-14436109D01*
X13793537Y-14455156D01*
X13926871Y-14255156D02*
X13945918Y-14255156D01*
X13964966Y-14264680D01*
X13974490Y-14274204D01*
X13984013Y-14293252D01*
X13993537Y-14331347D01*
X13993537Y-14378966D01*
X13984013Y-14417061D01*
X13974490Y-14436109D01*
X13964966Y-14445632D01*
X13945918Y-14455156D01*
X13926871Y-14455156D01*
X13907823Y-14445632D01*
X13898299Y-14436109D01*
X13888775Y-14417061D01*
X13879252Y-14378966D01*
X13879252Y-14331347D01*
X13888775Y-14293252D01*
X13898299Y-14274204D01*
X13907823Y-14264680D01*
X13926871Y-14255156D01*
X14060204Y-14255156D02*
X14184013Y-14255156D01*
X14117347Y-14331347D01*
X14145918Y-14331347D01*
X14164966Y-14340871D01*
X14174490Y-14350394D01*
X14184013Y-14369442D01*
X14184013Y-14417061D01*
X14174490Y-14436109D01*
X14164966Y-14445632D01*
X14145918Y-14455156D01*
X14088775Y-14455156D01*
X14069728Y-14445632D01*
X14060204Y-14436109D01*
X14374490Y-14455156D02*
X14260204Y-14455156D01*
X14317347Y-14455156D02*
X14317347Y-14255156D01*
X14298299Y-14283728D01*
X14279252Y-14302775D01*
X14260204Y-14312299D01*
X14555442Y-14255156D02*
X14460204Y-14255156D01*
X14450680Y-14350394D01*
X14460204Y-14340871D01*
X14479252Y-14331347D01*
X14526871Y-14331347D01*
X14545918Y-14340871D01*
X14555442Y-14350394D01*
X14564966Y-14369442D01*
X14564966Y-14417061D01*
X14555442Y-14436109D01*
X14545918Y-14445632D01*
X14526871Y-14455156D01*
X14479252Y-14455156D01*
X14460204Y-14445632D01*
X14450680Y-14436109D01*
X14641156Y-14255156D02*
X14641156Y-14293252D01*
X14717347Y-14255156D02*
X14717347Y-14293252D01*
X15012585Y-14531347D02*
X15003061Y-14521823D01*
X14984013Y-14493252D01*
X14974490Y-14474204D01*
X14964966Y-14445632D01*
X14955442Y-14398013D01*
X14955442Y-14359918D01*
X14964966Y-14312299D01*
X14974490Y-14283728D01*
X14984013Y-14264680D01*
X15003061Y-14236109D01*
X15012585Y-14226585D01*
X15184013Y-14255156D02*
X15088775Y-14255156D01*
X15079252Y-14350394D01*
X15088775Y-14340871D01*
X15107823Y-14331347D01*
X15155442Y-14331347D01*
X15174490Y-14340871D01*
X15184013Y-14350394D01*
X15193537Y-14369442D01*
X15193537Y-14417061D01*
X15184013Y-14436109D01*
X15174490Y-14445632D01*
X15155442Y-14455156D01*
X15107823Y-14455156D01*
X15088775Y-14445632D01*
X15079252Y-14436109D01*
X15364966Y-14255156D02*
X15326871Y-14255156D01*
X15307823Y-14264680D01*
X15298299Y-14274204D01*
X15279252Y-14302775D01*
X15269728Y-14340871D01*
X15269728Y-14417061D01*
X15279252Y-14436109D01*
X15288775Y-14445632D01*
X15307823Y-14455156D01*
X15345918Y-14455156D01*
X15364966Y-14445632D01*
X15374490Y-14436109D01*
X15384013Y-14417061D01*
X15384013Y-14369442D01*
X15374490Y-14350394D01*
X15364966Y-14340871D01*
X15345918Y-14331347D01*
X15307823Y-14331347D01*
X15288775Y-14340871D01*
X15279252Y-14350394D01*
X15269728Y-14369442D01*
X15622109Y-14455156D02*
X15622109Y-14255156D01*
X15707823Y-14455156D02*
X15707823Y-14350394D01*
X15698299Y-14331347D01*
X15679252Y-14321823D01*
X15650680Y-14321823D01*
X15631632Y-14331347D01*
X15622109Y-14340871D01*
X15831632Y-14455156D02*
X15812585Y-14445632D01*
X15803061Y-14436109D01*
X15793537Y-14417061D01*
X15793537Y-14359918D01*
X15803061Y-14340871D01*
X15812585Y-14331347D01*
X15831632Y-14321823D01*
X15860204Y-14321823D01*
X15879252Y-14331347D01*
X15888775Y-14340871D01*
X15898299Y-14359918D01*
X15898299Y-14417061D01*
X15888775Y-14436109D01*
X15879252Y-14445632D01*
X15860204Y-14455156D01*
X15831632Y-14455156D01*
X16012585Y-14455156D02*
X15993537Y-14445632D01*
X15984013Y-14426585D01*
X15984013Y-14255156D01*
X16164966Y-14445632D02*
X16145918Y-14455156D01*
X16107823Y-14455156D01*
X16088775Y-14445632D01*
X16079252Y-14426585D01*
X16079252Y-14350394D01*
X16088775Y-14331347D01*
X16107823Y-14321823D01*
X16145918Y-14321823D01*
X16164966Y-14331347D01*
X16174490Y-14350394D01*
X16174490Y-14369442D01*
X16079252Y-14388490D01*
X16250680Y-14445632D02*
X16269728Y-14455156D01*
X16307823Y-14455156D01*
X16326871Y-14445632D01*
X16336394Y-14426585D01*
X16336394Y-14417061D01*
X16326871Y-14398013D01*
X16307823Y-14388490D01*
X16279252Y-14388490D01*
X16260204Y-14378966D01*
X16250680Y-14359918D01*
X16250680Y-14350394D01*
X16260204Y-14331347D01*
X16279252Y-14321823D01*
X16307823Y-14321823D01*
X16326871Y-14331347D01*
X16403061Y-14531347D02*
X16412585Y-14521823D01*
X16431632Y-14493252D01*
X16441156Y-14474204D01*
X16450680Y-14445632D01*
X16460204Y-14398013D01*
X16460204Y-14359918D01*
X16450680Y-14312299D01*
X16441156Y-14283728D01*
X16431632Y-14264680D01*
X16412585Y-14236109D01*
X16403061Y-14226585D01*
D15*
X11395680Y-14583680D02*
X11395680Y-14673680D01*
X11350680Y-14628680D02*
X11440680Y-14628680D01*
D12*
X11736394Y-14519156D02*
X11755442Y-14519156D01*
X11774490Y-14528680D01*
X11784013Y-14538204D01*
X11793537Y-14557252D01*
X11803061Y-14595347D01*
X11803061Y-14642966D01*
X11793537Y-14681061D01*
X11784013Y-14700109D01*
X11774490Y-14709632D01*
X11755442Y-14719156D01*
X11736394Y-14719156D01*
X11717347Y-14709632D01*
X11707823Y-14700109D01*
X11698299Y-14681061D01*
X11688775Y-14642966D01*
X11688775Y-14595347D01*
X11698299Y-14557252D01*
X11707823Y-14538204D01*
X11717347Y-14528680D01*
X11736394Y-14519156D01*
X11888775Y-14700109D02*
X11898299Y-14709632D01*
X11888775Y-14719156D01*
X11879252Y-14709632D01*
X11888775Y-14700109D01*
X11888775Y-14719156D01*
X11993537Y-14719156D02*
X12031632Y-14719156D01*
X12050680Y-14709632D01*
X12060204Y-14700109D01*
X12079252Y-14671537D01*
X12088775Y-14633442D01*
X12088775Y-14557252D01*
X12079252Y-14538204D01*
X12069728Y-14528680D01*
X12050680Y-14519156D01*
X12012585Y-14519156D01*
X11993537Y-14528680D01*
X11984013Y-14538204D01*
X11974490Y-14557252D01*
X11974490Y-14604871D01*
X11984013Y-14623918D01*
X11993537Y-14633442D01*
X12012585Y-14642966D01*
X12050680Y-14642966D01*
X12069728Y-14633442D01*
X12079252Y-14623918D01*
X12088775Y-14604871D01*
X12212585Y-14519156D02*
X12231632Y-14519156D01*
X12250680Y-14528680D01*
X12260204Y-14538204D01*
X12269728Y-14557252D01*
X12279252Y-14595347D01*
X12279252Y-14642966D01*
X12269728Y-14681061D01*
X12260204Y-14700109D01*
X12250680Y-14709632D01*
X12231632Y-14719156D01*
X12212585Y-14719156D01*
X12193537Y-14709632D01*
X12184013Y-14700109D01*
X12174490Y-14681061D01*
X12164966Y-14642966D01*
X12164966Y-14595347D01*
X12174490Y-14557252D01*
X12184013Y-14538204D01*
X12193537Y-14528680D01*
X12212585Y-14519156D01*
X12403061Y-14519156D02*
X12422109Y-14519156D01*
X12441156Y-14528680D01*
X12450680Y-14538204D01*
X12460204Y-14557252D01*
X12469728Y-14595347D01*
X12469728Y-14642966D01*
X12460204Y-14681061D01*
X12450680Y-14700109D01*
X12441156Y-14709632D01*
X12422109Y-14719156D01*
X12403061Y-14719156D01*
X12384013Y-14709632D01*
X12374490Y-14700109D01*
X12364966Y-14681061D01*
X12355442Y-14642966D01*
X12355442Y-14595347D01*
X12364966Y-14557252D01*
X12374490Y-14538204D01*
X12384013Y-14528680D01*
X12403061Y-14519156D01*
X12555442Y-14719156D02*
X12555442Y-14585823D01*
X12555442Y-14604871D02*
X12564966Y-14595347D01*
X12584013Y-14585823D01*
X12612585Y-14585823D01*
X12631632Y-14595347D01*
X12641156Y-14614394D01*
X12641156Y-14719156D01*
X12641156Y-14614394D02*
X12650680Y-14595347D01*
X12669728Y-14585823D01*
X12698299Y-14585823D01*
X12717347Y-14595347D01*
X12726871Y-14614394D01*
X12726871Y-14719156D01*
X12822109Y-14719156D02*
X12822109Y-14585823D01*
X12822109Y-14604871D02*
X12831632Y-14595347D01*
X12850680Y-14585823D01*
X12879252Y-14585823D01*
X12898299Y-14595347D01*
X12907823Y-14614394D01*
X12907823Y-14719156D01*
X12907823Y-14614394D02*
X12917347Y-14595347D01*
X12936394Y-14585823D01*
X12964966Y-14585823D01*
X12984013Y-14595347D01*
X12993537Y-14614394D01*
X12993537Y-14719156D01*
X13384013Y-14509632D02*
X13212585Y-14766775D01*
X13641156Y-14519156D02*
X13660204Y-14519156D01*
X13679252Y-14528680D01*
X13688775Y-14538204D01*
X13698299Y-14557252D01*
X13707823Y-14595347D01*
X13707823Y-14642966D01*
X13698299Y-14681061D01*
X13688775Y-14700109D01*
X13679252Y-14709632D01*
X13660204Y-14719156D01*
X13641156Y-14719156D01*
X13622109Y-14709632D01*
X13612585Y-14700109D01*
X13603061Y-14681061D01*
X13593537Y-14642966D01*
X13593537Y-14595347D01*
X13603061Y-14557252D01*
X13612585Y-14538204D01*
X13622109Y-14528680D01*
X13641156Y-14519156D01*
X13793537Y-14700109D02*
X13803061Y-14709632D01*
X13793537Y-14719156D01*
X13784013Y-14709632D01*
X13793537Y-14700109D01*
X13793537Y-14719156D01*
X13926871Y-14519156D02*
X13945918Y-14519156D01*
X13964966Y-14528680D01*
X13974490Y-14538204D01*
X13984013Y-14557252D01*
X13993537Y-14595347D01*
X13993537Y-14642966D01*
X13984013Y-14681061D01*
X13974490Y-14700109D01*
X13964966Y-14709632D01*
X13945918Y-14719156D01*
X13926871Y-14719156D01*
X13907823Y-14709632D01*
X13898299Y-14700109D01*
X13888775Y-14681061D01*
X13879252Y-14642966D01*
X13879252Y-14595347D01*
X13888775Y-14557252D01*
X13898299Y-14538204D01*
X13907823Y-14528680D01*
X13926871Y-14519156D01*
X14060204Y-14519156D02*
X14184013Y-14519156D01*
X14117347Y-14595347D01*
X14145918Y-14595347D01*
X14164966Y-14604871D01*
X14174490Y-14614394D01*
X14184013Y-14633442D01*
X14184013Y-14681061D01*
X14174490Y-14700109D01*
X14164966Y-14709632D01*
X14145918Y-14719156D01*
X14088775Y-14719156D01*
X14069728Y-14709632D01*
X14060204Y-14700109D01*
X14364966Y-14519156D02*
X14269728Y-14519156D01*
X14260204Y-14614394D01*
X14269728Y-14604871D01*
X14288775Y-14595347D01*
X14336394Y-14595347D01*
X14355442Y-14604871D01*
X14364966Y-14614394D01*
X14374490Y-14633442D01*
X14374490Y-14681061D01*
X14364966Y-14700109D01*
X14355442Y-14709632D01*
X14336394Y-14719156D01*
X14288775Y-14719156D01*
X14269728Y-14709632D01*
X14260204Y-14700109D01*
X14545918Y-14585823D02*
X14545918Y-14719156D01*
X14498299Y-14509632D02*
X14450680Y-14652490D01*
X14574490Y-14652490D01*
X14641156Y-14519156D02*
X14641156Y-14557252D01*
X14717347Y-14519156D02*
X14717347Y-14557252D01*
X15012585Y-14795347D02*
X15003061Y-14785823D01*
X14984013Y-14757252D01*
X14974490Y-14738204D01*
X14964966Y-14709632D01*
X14955442Y-14662013D01*
X14955442Y-14623918D01*
X14964966Y-14576299D01*
X14974490Y-14547728D01*
X14984013Y-14528680D01*
X15003061Y-14500109D01*
X15012585Y-14490585D01*
X15069728Y-14519156D02*
X15203061Y-14519156D01*
X15117347Y-14719156D01*
X15431632Y-14719156D02*
X15431632Y-14519156D01*
X15517347Y-14719156D02*
X15517347Y-14614394D01*
X15507823Y-14595347D01*
X15488775Y-14585823D01*
X15460204Y-14585823D01*
X15441156Y-14595347D01*
X15431632Y-14604871D01*
X15641156Y-14719156D02*
X15622109Y-14709632D01*
X15612585Y-14700109D01*
X15603061Y-14681061D01*
X15603061Y-14623918D01*
X15612585Y-14604871D01*
X15622109Y-14595347D01*
X15641156Y-14585823D01*
X15669728Y-14585823D01*
X15688775Y-14595347D01*
X15698299Y-14604871D01*
X15707823Y-14623918D01*
X15707823Y-14681061D01*
X15698299Y-14700109D01*
X15688775Y-14709632D01*
X15669728Y-14719156D01*
X15641156Y-14719156D01*
X15822109Y-14719156D02*
X15803061Y-14709632D01*
X15793537Y-14690585D01*
X15793537Y-14519156D01*
X15974490Y-14709632D02*
X15955442Y-14719156D01*
X15917347Y-14719156D01*
X15898299Y-14709632D01*
X15888775Y-14690585D01*
X15888775Y-14614394D01*
X15898299Y-14595347D01*
X15917347Y-14585823D01*
X15955442Y-14585823D01*
X15974490Y-14595347D01*
X15984013Y-14614394D01*
X15984013Y-14633442D01*
X15888775Y-14652490D01*
X16060204Y-14709632D02*
X16079252Y-14719156D01*
X16117347Y-14719156D01*
X16136394Y-14709632D01*
X16145918Y-14690585D01*
X16145918Y-14681061D01*
X16136394Y-14662013D01*
X16117347Y-14652490D01*
X16088775Y-14652490D01*
X16069728Y-14642966D01*
X16060204Y-14623918D01*
X16060204Y-14614394D01*
X16069728Y-14595347D01*
X16088775Y-14585823D01*
X16117347Y-14585823D01*
X16136394Y-14595347D01*
X16212585Y-14795347D02*
X16222109Y-14785823D01*
X16241156Y-14757252D01*
X16250680Y-14738204D01*
X16260204Y-14709632D01*
X16269728Y-14662013D01*
X16269728Y-14623918D01*
X16260204Y-14576299D01*
X16250680Y-14547728D01*
X16241156Y-14528680D01*
X16222109Y-14500109D01*
X16212585Y-14490585D01*
D16*
X11424571Y-14931571D02*
X11424571Y-14853789D01*
X11346789Y-14853789D01*
X11346789Y-14931571D01*
X11424571Y-14931571D01*
D12*
X11803061Y-14983156D02*
X11688775Y-14983156D01*
X11745918Y-14983156D02*
X11745918Y-14783156D01*
X11726871Y-14811728D01*
X11707823Y-14830775D01*
X11688775Y-14840299D01*
X11888775Y-14964109D02*
X11898299Y-14973632D01*
X11888775Y-14983156D01*
X11879252Y-14973632D01*
X11888775Y-14964109D01*
X11888775Y-14983156D01*
X12088775Y-14983156D02*
X11974490Y-14983156D01*
X12031632Y-14983156D02*
X12031632Y-14783156D01*
X12012585Y-14811728D01*
X11993537Y-14830775D01*
X11974490Y-14840299D01*
X12212585Y-14783156D02*
X12231632Y-14783156D01*
X12250680Y-14792680D01*
X12260204Y-14802204D01*
X12269728Y-14821252D01*
X12279252Y-14859347D01*
X12279252Y-14906966D01*
X12269728Y-14945061D01*
X12260204Y-14964109D01*
X12250680Y-14973632D01*
X12231632Y-14983156D01*
X12212585Y-14983156D01*
X12193537Y-14973632D01*
X12184013Y-14964109D01*
X12174490Y-14945061D01*
X12164966Y-14906966D01*
X12164966Y-14859347D01*
X12174490Y-14821252D01*
X12184013Y-14802204D01*
X12193537Y-14792680D01*
X12212585Y-14783156D01*
X12403061Y-14783156D02*
X12422109Y-14783156D01*
X12441156Y-14792680D01*
X12450680Y-14802204D01*
X12460204Y-14821252D01*
X12469728Y-14859347D01*
X12469728Y-14906966D01*
X12460204Y-14945061D01*
X12450680Y-14964109D01*
X12441156Y-14973632D01*
X12422109Y-14983156D01*
X12403061Y-14983156D01*
X12384013Y-14973632D01*
X12374490Y-14964109D01*
X12364966Y-14945061D01*
X12355442Y-14906966D01*
X12355442Y-14859347D01*
X12364966Y-14821252D01*
X12374490Y-14802204D01*
X12384013Y-14792680D01*
X12403061Y-14783156D01*
X12555442Y-14983156D02*
X12555442Y-14849823D01*
X12555442Y-14868871D02*
X12564966Y-14859347D01*
X12584013Y-14849823D01*
X12612585Y-14849823D01*
X12631632Y-14859347D01*
X12641156Y-14878394D01*
X12641156Y-14983156D01*
X12641156Y-14878394D02*
X12650680Y-14859347D01*
X12669728Y-14849823D01*
X12698299Y-14849823D01*
X12717347Y-14859347D01*
X12726871Y-14878394D01*
X12726871Y-14983156D01*
X12822109Y-14983156D02*
X12822109Y-14849823D01*
X12822109Y-14868871D02*
X12831632Y-14859347D01*
X12850680Y-14849823D01*
X12879252Y-14849823D01*
X12898299Y-14859347D01*
X12907823Y-14878394D01*
X12907823Y-14983156D01*
X12907823Y-14878394D02*
X12917347Y-14859347D01*
X12936394Y-14849823D01*
X12964966Y-14849823D01*
X12984013Y-14859347D01*
X12993537Y-14878394D01*
X12993537Y-14983156D01*
X13384013Y-14773632D02*
X13212585Y-15030775D01*
X13641156Y-14783156D02*
X13660204Y-14783156D01*
X13679252Y-14792680D01*
X13688775Y-14802204D01*
X13698299Y-14821252D01*
X13707823Y-14859347D01*
X13707823Y-14906966D01*
X13698299Y-14945061D01*
X13688775Y-14964109D01*
X13679252Y-14973632D01*
X13660204Y-14983156D01*
X13641156Y-14983156D01*
X13622109Y-14973632D01*
X13612585Y-14964109D01*
X13603061Y-14945061D01*
X13593537Y-14906966D01*
X13593537Y-14859347D01*
X13603061Y-14821252D01*
X13612585Y-14802204D01*
X13622109Y-14792680D01*
X13641156Y-14783156D01*
X13793537Y-14964109D02*
X13803061Y-14973632D01*
X13793537Y-14983156D01*
X13784013Y-14973632D01*
X13793537Y-14964109D01*
X13793537Y-14983156D01*
X13926871Y-14783156D02*
X13945918Y-14783156D01*
X13964966Y-14792680D01*
X13974490Y-14802204D01*
X13984013Y-14821252D01*
X13993537Y-14859347D01*
X13993537Y-14906966D01*
X13984013Y-14945061D01*
X13974490Y-14964109D01*
X13964966Y-14973632D01*
X13945918Y-14983156D01*
X13926871Y-14983156D01*
X13907823Y-14973632D01*
X13898299Y-14964109D01*
X13888775Y-14945061D01*
X13879252Y-14906966D01*
X13879252Y-14859347D01*
X13888775Y-14821252D01*
X13898299Y-14802204D01*
X13907823Y-14792680D01*
X13926871Y-14783156D01*
X14164966Y-14849823D02*
X14164966Y-14983156D01*
X14117347Y-14773632D02*
X14069728Y-14916490D01*
X14193537Y-14916490D01*
X14250680Y-14783156D02*
X14374490Y-14783156D01*
X14307823Y-14859347D01*
X14336394Y-14859347D01*
X14355442Y-14868871D01*
X14364966Y-14878394D01*
X14374490Y-14897442D01*
X14374490Y-14945061D01*
X14364966Y-14964109D01*
X14355442Y-14973632D01*
X14336394Y-14983156D01*
X14279252Y-14983156D01*
X14260204Y-14973632D01*
X14250680Y-14964109D01*
X14441156Y-14783156D02*
X14564966Y-14783156D01*
X14498299Y-14859347D01*
X14526871Y-14859347D01*
X14545918Y-14868871D01*
X14555442Y-14878394D01*
X14564966Y-14897442D01*
X14564966Y-14945061D01*
X14555442Y-14964109D01*
X14545918Y-14973632D01*
X14526871Y-14983156D01*
X14469728Y-14983156D01*
X14450680Y-14973632D01*
X14441156Y-14964109D01*
X14641156Y-14783156D02*
X14641156Y-14821252D01*
X14717347Y-14783156D02*
X14717347Y-14821252D01*
X15012585Y-15059347D02*
X15003061Y-15049823D01*
X14984013Y-15021252D01*
X14974490Y-15002204D01*
X14964966Y-14973632D01*
X14955442Y-14926013D01*
X14955442Y-14887918D01*
X14964966Y-14840299D01*
X14974490Y-14811728D01*
X14984013Y-14792680D01*
X15003061Y-14764109D01*
X15012585Y-14754585D01*
X15174490Y-14849823D02*
X15174490Y-14983156D01*
X15126871Y-14773632D02*
X15079252Y-14916490D01*
X15203061Y-14916490D01*
X15431632Y-14983156D02*
X15431632Y-14783156D01*
X15517347Y-14983156D02*
X15517347Y-14878394D01*
X15507823Y-14859347D01*
X15488775Y-14849823D01*
X15460204Y-14849823D01*
X15441156Y-14859347D01*
X15431632Y-14868871D01*
X15641156Y-14983156D02*
X15622109Y-14973632D01*
X15612585Y-14964109D01*
X15603061Y-14945061D01*
X15603061Y-14887918D01*
X15612585Y-14868871D01*
X15622109Y-14859347D01*
X15641156Y-14849823D01*
X15669728Y-14849823D01*
X15688775Y-14859347D01*
X15698299Y-14868871D01*
X15707823Y-14887918D01*
X15707823Y-14945061D01*
X15698299Y-14964109D01*
X15688775Y-14973632D01*
X15669728Y-14983156D01*
X15641156Y-14983156D01*
X15822109Y-14983156D02*
X15803061Y-14973632D01*
X15793537Y-14954585D01*
X15793537Y-14783156D01*
X15974490Y-14973632D02*
X15955442Y-14983156D01*
X15917347Y-14983156D01*
X15898299Y-14973632D01*
X15888775Y-14954585D01*
X15888775Y-14878394D01*
X15898299Y-14859347D01*
X15917347Y-14849823D01*
X15955442Y-14849823D01*
X15974490Y-14859347D01*
X15984013Y-14878394D01*
X15984013Y-14897442D01*
X15888775Y-14916490D01*
X16060204Y-14973632D02*
X16079252Y-14983156D01*
X16117347Y-14983156D01*
X16136394Y-14973632D01*
X16145918Y-14954585D01*
X16145918Y-14945061D01*
X16136394Y-14926013D01*
X16117347Y-14916490D01*
X16088775Y-14916490D01*
X16069728Y-14906966D01*
X16060204Y-14887918D01*
X16060204Y-14878394D01*
X16069728Y-14859347D01*
X16088775Y-14849823D01*
X16117347Y-14849823D01*
X16136394Y-14859347D01*
X16212585Y-15059347D02*
X16222109Y-15049823D01*
X16241156Y-15021252D01*
X16250680Y-15002204D01*
X16260204Y-14973632D01*
X16269728Y-14926013D01*
X16269728Y-14887918D01*
X16260204Y-14840299D01*
X16250680Y-14811728D01*
X16241156Y-14792680D01*
X16222109Y-14764109D01*
X16212585Y-14754585D01*
D17*
X11381180Y-15216180D02*
X11440680Y-15156680D01*
X11381180Y-15097180D01*
X11321680Y-15156680D01*
X11381180Y-15216180D01*
D12*
X11803061Y-15247156D02*
X11688775Y-15247156D01*
X11745918Y-15247156D02*
X11745918Y-15047156D01*
X11726871Y-15075728D01*
X11707823Y-15094775D01*
X11688775Y-15104299D01*
X11888775Y-15228109D02*
X11898299Y-15237632D01*
X11888775Y-15247156D01*
X11879252Y-15237632D01*
X11888775Y-15228109D01*
X11888775Y-15247156D01*
X12088775Y-15247156D02*
X11974490Y-15247156D01*
X12031632Y-15247156D02*
X12031632Y-15047156D01*
X12012585Y-15075728D01*
X11993537Y-15094775D01*
X11974490Y-15104299D01*
X12184013Y-15247156D02*
X12222109Y-15247156D01*
X12241156Y-15237632D01*
X12250680Y-15228109D01*
X12269728Y-15199537D01*
X12279252Y-15161442D01*
X12279252Y-15085252D01*
X12269728Y-15066204D01*
X12260204Y-15056680D01*
X12241156Y-15047156D01*
X12203061Y-15047156D01*
X12184013Y-15056680D01*
X12174490Y-15066204D01*
X12164966Y-15085252D01*
X12164966Y-15132871D01*
X12174490Y-15151918D01*
X12184013Y-15161442D01*
X12203061Y-15170966D01*
X12241156Y-15170966D01*
X12260204Y-15161442D01*
X12269728Y-15151918D01*
X12279252Y-15132871D01*
X12403061Y-15047156D02*
X12422109Y-15047156D01*
X12441156Y-15056680D01*
X12450680Y-15066204D01*
X12460204Y-15085252D01*
X12469728Y-15123347D01*
X12469728Y-15170966D01*
X12460204Y-15209061D01*
X12450680Y-15228109D01*
X12441156Y-15237632D01*
X12422109Y-15247156D01*
X12403061Y-15247156D01*
X12384013Y-15237632D01*
X12374490Y-15228109D01*
X12364966Y-15209061D01*
X12355442Y-15170966D01*
X12355442Y-15123347D01*
X12364966Y-15085252D01*
X12374490Y-15066204D01*
X12384013Y-15056680D01*
X12403061Y-15047156D01*
X12555442Y-15247156D02*
X12555442Y-15113823D01*
X12555442Y-15132871D02*
X12564966Y-15123347D01*
X12584013Y-15113823D01*
X12612585Y-15113823D01*
X12631632Y-15123347D01*
X12641156Y-15142394D01*
X12641156Y-15247156D01*
X12641156Y-15142394D02*
X12650680Y-15123347D01*
X12669728Y-15113823D01*
X12698299Y-15113823D01*
X12717347Y-15123347D01*
X12726871Y-15142394D01*
X12726871Y-15247156D01*
X12822109Y-15247156D02*
X12822109Y-15113823D01*
X12822109Y-15132871D02*
X12831632Y-15123347D01*
X12850680Y-15113823D01*
X12879252Y-15113823D01*
X12898299Y-15123347D01*
X12907823Y-15142394D01*
X12907823Y-15247156D01*
X12907823Y-15142394D02*
X12917347Y-15123347D01*
X12936394Y-15113823D01*
X12964966Y-15113823D01*
X12984013Y-15123347D01*
X12993537Y-15142394D01*
X12993537Y-15247156D01*
X13384013Y-15037632D02*
X13212585Y-15294775D01*
X13641156Y-15047156D02*
X13660204Y-15047156D01*
X13679252Y-15056680D01*
X13688775Y-15066204D01*
X13698299Y-15085252D01*
X13707823Y-15123347D01*
X13707823Y-15170966D01*
X13698299Y-15209061D01*
X13688775Y-15228109D01*
X13679252Y-15237632D01*
X13660204Y-15247156D01*
X13641156Y-15247156D01*
X13622109Y-15237632D01*
X13612585Y-15228109D01*
X13603061Y-15209061D01*
X13593537Y-15170966D01*
X13593537Y-15123347D01*
X13603061Y-15085252D01*
X13612585Y-15066204D01*
X13622109Y-15056680D01*
X13641156Y-15047156D01*
X13793537Y-15228109D02*
X13803061Y-15237632D01*
X13793537Y-15247156D01*
X13784013Y-15237632D01*
X13793537Y-15228109D01*
X13793537Y-15247156D01*
X13926871Y-15047156D02*
X13945918Y-15047156D01*
X13964966Y-15056680D01*
X13974490Y-15066204D01*
X13984013Y-15085252D01*
X13993537Y-15123347D01*
X13993537Y-15170966D01*
X13984013Y-15209061D01*
X13974490Y-15228109D01*
X13964966Y-15237632D01*
X13945918Y-15247156D01*
X13926871Y-15247156D01*
X13907823Y-15237632D01*
X13898299Y-15228109D01*
X13888775Y-15209061D01*
X13879252Y-15170966D01*
X13879252Y-15123347D01*
X13888775Y-15085252D01*
X13898299Y-15066204D01*
X13907823Y-15056680D01*
X13926871Y-15047156D01*
X14164966Y-15113823D02*
X14164966Y-15247156D01*
X14117347Y-15037632D02*
X14069728Y-15180490D01*
X14193537Y-15180490D01*
X14355442Y-15047156D02*
X14317347Y-15047156D01*
X14298299Y-15056680D01*
X14288775Y-15066204D01*
X14269728Y-15094775D01*
X14260204Y-15132871D01*
X14260204Y-15209061D01*
X14269728Y-15228109D01*
X14279252Y-15237632D01*
X14298299Y-15247156D01*
X14336394Y-15247156D01*
X14355442Y-15237632D01*
X14364966Y-15228109D01*
X14374490Y-15209061D01*
X14374490Y-15161442D01*
X14364966Y-15142394D01*
X14355442Y-15132871D01*
X14336394Y-15123347D01*
X14298299Y-15123347D01*
X14279252Y-15132871D01*
X14269728Y-15142394D01*
X14260204Y-15161442D01*
X14469728Y-15247156D02*
X14507823Y-15247156D01*
X14526871Y-15237632D01*
X14536394Y-15228109D01*
X14555442Y-15199537D01*
X14564966Y-15161442D01*
X14564966Y-15085252D01*
X14555442Y-15066204D01*
X14545918Y-15056680D01*
X14526871Y-15047156D01*
X14488775Y-15047156D01*
X14469728Y-15056680D01*
X14460204Y-15066204D01*
X14450680Y-15085252D01*
X14450680Y-15132871D01*
X14460204Y-15151918D01*
X14469728Y-15161442D01*
X14488775Y-15170966D01*
X14526871Y-15170966D01*
X14545918Y-15161442D01*
X14555442Y-15151918D01*
X14564966Y-15132871D01*
X14641156Y-15047156D02*
X14641156Y-15085252D01*
X14717347Y-15047156D02*
X14717347Y-15085252D01*
X15012585Y-15323347D02*
X15003061Y-15313823D01*
X14984013Y-15285252D01*
X14974490Y-15266204D01*
X14964966Y-15237632D01*
X14955442Y-15190013D01*
X14955442Y-15151918D01*
X14964966Y-15104299D01*
X14974490Y-15075728D01*
X14984013Y-15056680D01*
X15003061Y-15028109D01*
X15012585Y-15018585D01*
X15193537Y-15247156D02*
X15079252Y-15247156D01*
X15136394Y-15247156D02*
X15136394Y-15047156D01*
X15117347Y-15075728D01*
X15098299Y-15094775D01*
X15079252Y-15104299D01*
X15364966Y-15113823D02*
X15364966Y-15247156D01*
X15317347Y-15037632D02*
X15269728Y-15180490D01*
X15393537Y-15180490D01*
X15622109Y-15247156D02*
X15622109Y-15047156D01*
X15707823Y-15247156D02*
X15707823Y-15142394D01*
X15698299Y-15123347D01*
X15679252Y-15113823D01*
X15650680Y-15113823D01*
X15631632Y-15123347D01*
X15622109Y-15132871D01*
X15831632Y-15247156D02*
X15812585Y-15237632D01*
X15803061Y-15228109D01*
X15793537Y-15209061D01*
X15793537Y-15151918D01*
X15803061Y-15132871D01*
X15812585Y-15123347D01*
X15831632Y-15113823D01*
X15860204Y-15113823D01*
X15879252Y-15123347D01*
X15888775Y-15132871D01*
X15898299Y-15151918D01*
X15898299Y-15209061D01*
X15888775Y-15228109D01*
X15879252Y-15237632D01*
X15860204Y-15247156D01*
X15831632Y-15247156D01*
X16012585Y-15247156D02*
X15993537Y-15237632D01*
X15984013Y-15218585D01*
X15984013Y-15047156D01*
X16164966Y-15237632D02*
X16145918Y-15247156D01*
X16107823Y-15247156D01*
X16088775Y-15237632D01*
X16079252Y-15218585D01*
X16079252Y-15142394D01*
X16088775Y-15123347D01*
X16107823Y-15113823D01*
X16145918Y-15113823D01*
X16164966Y-15123347D01*
X16174490Y-15142394D01*
X16174490Y-15161442D01*
X16079252Y-15180490D01*
X16250680Y-15237632D02*
X16269728Y-15247156D01*
X16307823Y-15247156D01*
X16326871Y-15237632D01*
X16336394Y-15218585D01*
X16336394Y-15209061D01*
X16326871Y-15190013D01*
X16307823Y-15180490D01*
X16279252Y-15180490D01*
X16260204Y-15170966D01*
X16250680Y-15151918D01*
X16250680Y-15142394D01*
X16260204Y-15123347D01*
X16279252Y-15113823D01*
X16307823Y-15113823D01*
X16326871Y-15123347D01*
X16403061Y-15323347D02*
X16412585Y-15313823D01*
X16431632Y-15285252D01*
X16441156Y-15266204D01*
X16450680Y-15237632D01*
X16460204Y-15190013D01*
X16460204Y-15151918D01*
X16450680Y-15104299D01*
X16441156Y-15075728D01*
X16431632Y-15056680D01*
X16412585Y-15028109D01*
X16403061Y-15018585D01*
M02*
