%TF.GenerationSoftware,KiCad,Pcbnew,(6.0.7-1)-1*%
%TF.CreationDate,2022-10-19T21:48:04+05:30*%
%TF.ProjectId,Ac Temp Control V2,41632054-656d-4702-9043-6f6e74726f6c,rev?*%
%TF.SameCoordinates,Original*%
%TF.FileFunction,Soldermask,Top*%
%TF.FilePolarity,Negative*%
%FSLAX46Y46*%
G04 Gerber Fmt 4.6, Leading zero omitted, Abs format (unit mm)*
G04 Created by KiCad (PCBNEW (6.0.7-1)-1) date 2022-10-19 21:48:04*
%MOMM*%
%LPD*%
G01*
G04 APERTURE LIST*
G04 Aperture macros list*
%AMRoundRect*
0 Rectangle with rounded corners*
0 $1 Rounding radius*
0 $2 $3 $4 $5 $6 $7 $8 $9 X,Y pos of 4 corners*
0 Add a 4 corners polygon primitive as box body*
4,1,4,$2,$3,$4,$5,$6,$7,$8,$9,$2,$3,0*
0 Add four circle primitives for the rounded corners*
1,1,$1+$1,$2,$3*
1,1,$1+$1,$4,$5*
1,1,$1+$1,$6,$7*
1,1,$1+$1,$8,$9*
0 Add four rect primitives between the rounded corners*
20,1,$1+$1,$2,$3,$4,$5,0*
20,1,$1+$1,$4,$5,$6,$7,0*
20,1,$1+$1,$6,$7,$8,$9,0*
20,1,$1+$1,$8,$9,$2,$3,0*%
G04 Aperture macros list end*
%ADD10R,2.400000X1.600000*%
%ADD11O,2.400000X1.600000*%
%ADD12C,1.500000*%
%ADD13C,1.600000*%
%ADD14O,1.600000X1.600000*%
%ADD15RoundRect,0.250000X0.845000X-0.620000X0.845000X0.620000X-0.845000X0.620000X-0.845000X-0.620000X0*%
%ADD16O,2.190000X1.740000*%
%ADD17C,2.000000*%
%ADD18R,1.600000X1.600000*%
%ADD19RoundRect,0.250000X-0.620000X-0.845000X0.620000X-0.845000X0.620000X0.845000X-0.620000X0.845000X0*%
%ADD20O,1.740000X2.190000*%
%ADD21R,1.800000X1.800000*%
%ADD22C,1.800000*%
%ADD23RoundRect,0.250200X0.649800X0.649800X-0.649800X0.649800X-0.649800X-0.649800X0.649800X-0.649800X0*%
%ADD24R,1.300000X1.300000*%
%ADD25C,1.300000*%
%ADD26R,1.500000X1.500000*%
G04 APERTURE END LIST*
D10*
%TO.C,U1*%
X153781802Y-87906802D03*
D11*
X153781802Y-90446802D03*
X153781802Y-92986802D03*
X153781802Y-95526802D03*
X153781802Y-98066802D03*
X153781802Y-100606802D03*
X153781802Y-103146802D03*
X153781802Y-105686802D03*
X153781802Y-108226802D03*
X153781802Y-110766802D03*
X153781802Y-113306802D03*
X153781802Y-115846802D03*
X153781802Y-118386802D03*
X153781802Y-120926802D03*
X161401802Y-120926802D03*
X161401802Y-118386802D03*
X161401802Y-115846802D03*
X161401802Y-113306802D03*
X161401802Y-110766802D03*
X161401802Y-108226802D03*
X161401802Y-105686802D03*
X161401802Y-103146802D03*
X161401802Y-100606802D03*
X161401802Y-98066802D03*
X161401802Y-95526802D03*
X161401802Y-92986802D03*
X161401802Y-90446802D03*
X161401802Y-87906802D03*
%TD*%
D12*
%TO.C,Y1*%
X146381802Y-129781802D03*
X151281802Y-129781802D03*
%TD*%
D13*
%TO.C,R3*%
X140881802Y-78901802D03*
D14*
X140881802Y-89061802D03*
%TD*%
D15*
%TO.C,VR1*%
X123401802Y-94971802D03*
D16*
X123401802Y-92431802D03*
X123401802Y-89891802D03*
%TD*%
D17*
%TO.C,SW1*%
X129081802Y-81781802D03*
X135581802Y-81781802D03*
X129081802Y-86281802D03*
X135581802Y-86281802D03*
%TD*%
D13*
%TO.C,R1*%
X146631802Y-90901802D03*
D14*
X146631802Y-101061802D03*
%TD*%
D18*
%TO.C,U4*%
X131231802Y-112781802D03*
D14*
X131231802Y-110241802D03*
X131231802Y-107701802D03*
X131231802Y-105161802D03*
X123611802Y-105161802D03*
X123611802Y-107701802D03*
X123611802Y-110241802D03*
X123611802Y-112781802D03*
%TD*%
D15*
%TO.C,J1*%
X119281802Y-101531802D03*
D16*
X119281802Y-98991802D03*
%TD*%
D19*
%TO.C,DISPLAY1*%
X148871802Y-82201802D03*
D20*
X151411802Y-82201802D03*
X153951802Y-82201802D03*
X156491802Y-82201802D03*
%TD*%
D13*
%TO.C,C1*%
X144131802Y-124731802D03*
X149131802Y-124731802D03*
%TD*%
D21*
%TO.C,D1*%
X167631802Y-107381802D03*
D22*
X165091802Y-107381802D03*
%TD*%
D13*
%TO.C,C2*%
X156931802Y-124731802D03*
X151931802Y-124731802D03*
%TD*%
D15*
%TO.C,J2*%
X166651802Y-101111802D03*
D16*
X166651802Y-98571802D03*
X166651802Y-96031802D03*
X166651802Y-93491802D03*
X166651802Y-90951802D03*
%TD*%
D13*
%TO.C,R5*%
X141381802Y-96331802D03*
D14*
X131221802Y-96331802D03*
%TD*%
D21*
%TO.C,D2*%
X147531802Y-111731802D03*
D22*
X144991802Y-111731802D03*
%TD*%
D13*
%TO.C,R2*%
X171781802Y-100881802D03*
D14*
X171781802Y-111041802D03*
%TD*%
D23*
%TO.C,U3*%
X141181802Y-112481802D03*
D22*
X138641802Y-112481802D03*
X136101802Y-112481802D03*
%TD*%
D24*
%TO.C,Q1*%
X139050000Y-102250000D03*
D25*
X140320000Y-103520000D03*
X139050000Y-104790000D03*
%TD*%
D13*
%TO.C,R4*%
X141281802Y-92931802D03*
D14*
X131121802Y-92931802D03*
%TD*%
D26*
%TO.C,U2*%
X139969302Y-118484302D03*
D12*
X142509302Y-118484302D03*
X145049302Y-118484302D03*
X147589302Y-118484302D03*
%TD*%
M02*
