%TF.GenerationSoftware,KiCad,Pcbnew,(6.0.7-1)-1*%
%TF.CreationDate,2022-10-17T13:14:11+05:30*%
%TF.ProjectId,Ac Temp Control ,41632054-656d-4702-9043-6f6e74726f6c,rev?*%
%TF.SameCoordinates,Original*%
%TF.FileFunction,Copper,L2,Bot*%
%TF.FilePolarity,Positive*%
%FSLAX46Y46*%
G04 Gerber Fmt 4.6, Leading zero omitted, Abs format (unit mm)*
G04 Created by KiCad (PCBNEW (6.0.7-1)-1) date 2022-10-17 13:14:11*
%MOMM*%
%LPD*%
G01*
G04 APERTURE LIST*
G04 Aperture macros list*
%AMRoundRect*
0 Rectangle with rounded corners*
0 $1 Rounding radius*
0 $2 $3 $4 $5 $6 $7 $8 $9 X,Y pos of 4 corners*
0 Add a 4 corners polygon primitive as box body*
4,1,4,$2,$3,$4,$5,$6,$7,$8,$9,$2,$3,0*
0 Add four circle primitives for the rounded corners*
1,1,$1+$1,$2,$3*
1,1,$1+$1,$4,$5*
1,1,$1+$1,$6,$7*
1,1,$1+$1,$8,$9*
0 Add four rect primitives between the rounded corners*
20,1,$1+$1,$2,$3,$4,$5,0*
20,1,$1+$1,$4,$5,$6,$7,0*
20,1,$1+$1,$6,$7,$8,$9,0*
20,1,$1+$1,$8,$9,$2,$3,0*%
G04 Aperture macros list end*
%TA.AperFunction,ComponentPad*%
%ADD10R,2.400000X1.600000*%
%TD*%
%TA.AperFunction,ComponentPad*%
%ADD11O,2.400000X1.600000*%
%TD*%
%TA.AperFunction,ComponentPad*%
%ADD12C,1.500000*%
%TD*%
%TA.AperFunction,ComponentPad*%
%ADD13C,1.600000*%
%TD*%
%TA.AperFunction,ComponentPad*%
%ADD14O,1.600000X1.600000*%
%TD*%
%TA.AperFunction,ComponentPad*%
%ADD15RoundRect,0.250000X0.845000X-0.620000X0.845000X0.620000X-0.845000X0.620000X-0.845000X-0.620000X0*%
%TD*%
%TA.AperFunction,ComponentPad*%
%ADD16O,2.190000X1.740000*%
%TD*%
%TA.AperFunction,ComponentPad*%
%ADD17C,2.000000*%
%TD*%
%TA.AperFunction,ComponentPad*%
%ADD18R,1.600000X1.600000*%
%TD*%
%TA.AperFunction,ComponentPad*%
%ADD19RoundRect,0.250000X-0.620000X-0.845000X0.620000X-0.845000X0.620000X0.845000X-0.620000X0.845000X0*%
%TD*%
%TA.AperFunction,ComponentPad*%
%ADD20O,1.740000X2.190000*%
%TD*%
%TA.AperFunction,ComponentPad*%
%ADD21R,1.800000X1.800000*%
%TD*%
%TA.AperFunction,ComponentPad*%
%ADD22C,1.800000*%
%TD*%
%TA.AperFunction,ComponentPad*%
%ADD23RoundRect,0.250200X0.649800X0.649800X-0.649800X0.649800X-0.649800X-0.649800X0.649800X-0.649800X0*%
%TD*%
%TA.AperFunction,ComponentPad*%
%ADD24R,1.300000X1.300000*%
%TD*%
%TA.AperFunction,ComponentPad*%
%ADD25C,1.300000*%
%TD*%
%TA.AperFunction,ComponentPad*%
%ADD26R,1.500000X1.500000*%
%TD*%
%TA.AperFunction,ViaPad*%
%ADD27C,4.000000*%
%TD*%
G04 APERTURE END LIST*
D10*
%TO.P,U1,1,~{RESET}/PC6*%
%TO.N,Net-(R3-Pad1)*%
X153781802Y-87906802D03*
D11*
%TO.P,U1,2,PD0*%
%TO.N,Net-(U1-Pad2)*%
X153781802Y-90446802D03*
%TO.P,U1,3,PD1*%
%TO.N,Net-(R1-Pad1)*%
X153781802Y-92986802D03*
%TO.P,U1,4,PD2*%
%TO.N,Net-(U1-Pad4)*%
X153781802Y-95526802D03*
%TO.P,U1,5,PD3*%
%TO.N,Net-(J2-Pad3)*%
X153781802Y-98066802D03*
%TO.P,U1,6,PD4*%
%TO.N,Net-(J2-Pad2)*%
X153781802Y-100606802D03*
%TO.P,U1,7,VCC*%
%TO.N,Net-(D1-Pad2)*%
X153781802Y-103146802D03*
%TO.P,U1,8,GND*%
%TO.N,GND*%
X153781802Y-105686802D03*
%TO.P,U1,9,XTAL1/PB6*%
%TO.N,Net-(C1-Pad1)*%
X153781802Y-108226802D03*
%TO.P,U1,10,XTAL2/PB7*%
%TO.N,Net-(C2-Pad1)*%
X153781802Y-110766802D03*
%TO.P,U1,11,PD5*%
%TO.N,Net-(J2-Pad1)*%
X153781802Y-113306802D03*
%TO.P,U1,12,PD6*%
%TO.N,unconnected-(U1-Pad12)*%
X153781802Y-115846802D03*
%TO.P,U1,13,PD7*%
%TO.N,unconnected-(U1-Pad13)*%
X153781802Y-118386802D03*
%TO.P,U1,14,PB0*%
%TO.N,unconnected-(U1-Pad14)*%
X153781802Y-120926802D03*
%TO.P,U1,15,PB1*%
%TO.N,unconnected-(U1-Pad15)*%
X161401802Y-120926802D03*
%TO.P,U1,16,PB2*%
%TO.N,unconnected-(U1-Pad16)*%
X161401802Y-118386802D03*
%TO.P,U1,17,PB3*%
%TO.N,unconnected-(U1-Pad17)*%
X161401802Y-115846802D03*
%TO.P,U1,18,PB4*%
%TO.N,unconnected-(U1-Pad18)*%
X161401802Y-113306802D03*
%TO.P,U1,19,PB5*%
%TO.N,Net-(R2-Pad2)*%
X161401802Y-110766802D03*
%TO.P,U1,20,AVCC*%
%TO.N,Net-(D1-Pad2)*%
X161401802Y-108226802D03*
%TO.P,U1,21,AREF*%
%TO.N,AREF*%
X161401802Y-105686802D03*
%TO.P,U1,22,GND*%
%TO.N,GND*%
X161401802Y-103146802D03*
%TO.P,U1,23,PC0*%
%TO.N,unconnected-(U1-Pad23)*%
X161401802Y-100606802D03*
%TO.P,U1,24,PC1*%
%TO.N,unconnected-(U1-Pad24)*%
X161401802Y-98066802D03*
%TO.P,U1,25,PC2*%
%TO.N,unconnected-(U1-Pad25)*%
X161401802Y-95526802D03*
%TO.P,U1,26,PC3*%
%TO.N,unconnected-(U1-Pad26)*%
X161401802Y-92986802D03*
%TO.P,U1,27,PC4*%
%TO.N,Net-(DISPLAY1-Pad4)*%
X161401802Y-90446802D03*
%TO.P,U1,28,PC5*%
%TO.N,Net-(DISPLAY1-Pad3)*%
X161401802Y-87906802D03*
%TD*%
D12*
%TO.P,Y1,1,1*%
%TO.N,Net-(C1-Pad1)*%
X146381802Y-129781802D03*
%TO.P,Y1,2,2*%
%TO.N,Net-(C2-Pad1)*%
X151281802Y-129781802D03*
%TD*%
D13*
%TO.P,R3,1*%
%TO.N,Net-(R3-Pad1)*%
X140881802Y-78901802D03*
D14*
%TO.P,R3,2*%
%TO.N,Net-(D1-Pad2)*%
X140881802Y-89061802D03*
%TD*%
D15*
%TO.P,VR1,1,IN*%
%TO.N,Net-(J1-Pad1)*%
X123401802Y-94971802D03*
D16*
%TO.P,VR1,2,GND*%
%TO.N,GND*%
X123401802Y-92431802D03*
%TO.P,VR1,3,OUT*%
%TO.N,Net-(D1-Pad2)*%
X123401802Y-89891802D03*
%TD*%
D17*
%TO.P,SW1,1,1*%
%TO.N,GND*%
X129081802Y-81781802D03*
X135581802Y-81781802D03*
%TO.P,SW1,2,2*%
%TO.N,Net-(R3-Pad1)*%
X129081802Y-86281802D03*
X135581802Y-86281802D03*
%TD*%
D13*
%TO.P,R1,1*%
%TO.N,Net-(R1-Pad1)*%
X146631802Y-90901802D03*
D14*
%TO.P,R1,2*%
%TO.N,Net-(Q1-Pad2)*%
X146631802Y-101061802D03*
%TD*%
D18*
%TO.P,U4,1,A0*%
%TO.N,GND*%
X131231802Y-112781802D03*
D14*
%TO.P,U4,2,A1*%
X131231802Y-110241802D03*
%TO.P,U4,3,A2*%
%TO.N,Net-(D1-Pad2)*%
X131231802Y-107701802D03*
%TO.P,U4,4,GND*%
%TO.N,GND*%
X131231802Y-105161802D03*
%TO.P,U4,5,SDA*%
%TO.N,Net-(DISPLAY1-Pad4)*%
X123611802Y-105161802D03*
%TO.P,U4,6,SCL*%
%TO.N,Net-(DISPLAY1-Pad3)*%
X123611802Y-107701802D03*
%TO.P,U4,7,WP*%
%TO.N,GND*%
X123611802Y-110241802D03*
%TO.P,U4,8,VCC*%
%TO.N,Net-(D1-Pad2)*%
X123611802Y-112781802D03*
%TD*%
D15*
%TO.P,J1,1,Pin_1*%
%TO.N,Net-(J1-Pad1)*%
X119281802Y-101531802D03*
D16*
%TO.P,J1,2,Pin_2*%
%TO.N,GND*%
X119281802Y-98991802D03*
%TD*%
D19*
%TO.P,DISPLAY1,1,GND*%
%TO.N,GND*%
X148871802Y-82201802D03*
D20*
%TO.P,DISPLAY1,2,VCC*%
%TO.N,Net-(D1-Pad2)*%
X151411802Y-82201802D03*
%TO.P,DISPLAY1,3,SCL*%
%TO.N,Net-(DISPLAY1-Pad3)*%
X153951802Y-82201802D03*
%TO.P,DISPLAY1,4,SDA*%
%TO.N,Net-(DISPLAY1-Pad4)*%
X156491802Y-82201802D03*
%TD*%
D13*
%TO.P,C1,1,1*%
%TO.N,Net-(C1-Pad1)*%
X144131802Y-124731802D03*
%TO.P,C1,2,2*%
%TO.N,GND*%
X149131802Y-124731802D03*
%TD*%
D21*
%TO.P,D1,1,K*%
%TO.N,Net-(D1-Pad1)*%
X167631802Y-107381802D03*
D22*
%TO.P,D1,2,A*%
%TO.N,Net-(D1-Pad2)*%
X165091802Y-107381802D03*
%TD*%
D13*
%TO.P,C2,1,1*%
%TO.N,Net-(C2-Pad1)*%
X156931802Y-124731802D03*
%TO.P,C2,2,2*%
%TO.N,GND*%
X151931802Y-124731802D03*
%TD*%
D15*
%TO.P,J2,1,Pin_1*%
%TO.N,Net-(J2-Pad1)*%
X166651802Y-101111802D03*
D16*
%TO.P,J2,2,Pin_2*%
%TO.N,Net-(J2-Pad2)*%
X166651802Y-98571802D03*
%TO.P,J2,3,Pin_3*%
%TO.N,Net-(J2-Pad3)*%
X166651802Y-96031802D03*
%TO.P,J2,4,Pin_4*%
%TO.N,Net-(D1-Pad2)*%
X166651802Y-93491802D03*
%TO.P,J2,5,Pin_5*%
%TO.N,GND*%
X166651802Y-90951802D03*
%TD*%
D13*
%TO.P,R5,1*%
%TO.N,Net-(DISPLAY1-Pad3)*%
X141381802Y-96331802D03*
D14*
%TO.P,R5,2*%
%TO.N,Net-(D1-Pad2)*%
X131221802Y-96331802D03*
%TD*%
D21*
%TO.P,D2,1*%
%TO.N,Net-(D2-PadA)*%
X147531802Y-111731802D03*
D22*
%TO.P,D2,2*%
%TO.N,Net-(D1-Pad2)*%
X144991802Y-111731802D03*
%TD*%
D13*
%TO.P,R2,1*%
%TO.N,Net-(D1-Pad1)*%
X171781802Y-100881802D03*
D14*
%TO.P,R2,2*%
%TO.N,Net-(R2-Pad2)*%
X171781802Y-111041802D03*
%TD*%
D23*
%TO.P,U3,1,OUT*%
%TO.N,Net-(U1-Pad4)*%
X141181802Y-112481802D03*
D22*
%TO.P,U3,2,GND*%
%TO.N,GND*%
X138641802Y-112481802D03*
%TO.P,U3,3,Vs*%
%TO.N,Net-(D1-Pad2)*%
X136101802Y-112481802D03*
%TD*%
D24*
%TO.P,Q1,1,C*%
%TO.N,Net-(D2-PadA)*%
X138981802Y-104521802D03*
D25*
%TO.P,Q1,2,B*%
%TO.N,Net-(Q1-Pad2)*%
X137711802Y-103251802D03*
%TO.P,Q1,3,E*%
%TO.N,GND*%
X138981802Y-101981802D03*
%TD*%
D13*
%TO.P,R4,1*%
%TO.N,Net-(DISPLAY1-Pad4)*%
X141281802Y-92931802D03*
D14*
%TO.P,R4,2*%
%TO.N,Net-(D1-Pad2)*%
X131121802Y-92931802D03*
%TD*%
D26*
%TO.P,U2,1,VCC*%
%TO.N,Net-(D1-Pad2)*%
X139969302Y-118484302D03*
D12*
%TO.P,U2,2,IO*%
%TO.N,Net-(U1-Pad2)*%
X142509302Y-118484302D03*
%TO.P,U2,3,NC*%
%TO.N,unconnected-(U2-Pad3)*%
X145049302Y-118484302D03*
%TO.P,U2,4,GND*%
%TO.N,GND*%
X147589302Y-118484302D03*
%TD*%
D27*
%TO.N,*%
X144481802Y-79531802D03*
X166131802Y-117081802D03*
X122831802Y-117081802D03*
X144481802Y-104531802D03*
%TD*%
M02*
