%TF.GenerationSoftware,KiCad,Pcbnew,(6.0.7-1)-1*%
%TF.CreationDate,2022-10-17T13:14:11+05:30*%
%TF.ProjectId,Ac Temp Control ,41632054-656d-4702-9043-6f6e74726f6c,rev?*%
%TF.SameCoordinates,Original*%
%TF.FileFunction,Legend,Top*%
%TF.FilePolarity,Positive*%
%FSLAX46Y46*%
G04 Gerber Fmt 4.6, Leading zero omitted, Abs format (unit mm)*
G04 Created by KiCad (PCBNEW (6.0.7-1)-1) date 2022-10-17 13:14:11*
%MOMM*%
%LPD*%
G01*
G04 APERTURE LIST*
%ADD10C,0.150000*%
%ADD11C,0.120000*%
G04 APERTURE END LIST*
D10*
%TO.C,U1*%
X157019897Y-88034182D02*
X157019897Y-88843706D01*
X157067516Y-88938944D01*
X157115135Y-88986563D01*
X157210373Y-89034182D01*
X157400849Y-89034182D01*
X157496087Y-88986563D01*
X157543706Y-88938944D01*
X157591325Y-88843706D01*
X157591325Y-88034182D01*
X158591325Y-89034182D02*
X158019897Y-89034182D01*
X158305611Y-89034182D02*
X158305611Y-88034182D01*
X158210373Y-88177040D01*
X158115135Y-88272278D01*
X158019897Y-88319897D01*
%TO.C,Y1*%
X148355611Y-129757992D02*
X148355611Y-130234182D01*
X148022278Y-129234182D02*
X148355611Y-129757992D01*
X148688944Y-129234182D01*
X149546087Y-130234182D02*
X148974659Y-130234182D01*
X149260373Y-130234182D02*
X149260373Y-129234182D01*
X149165135Y-129377040D01*
X149069897Y-129472278D01*
X148974659Y-129519897D01*
%TO.C,R3*%
X141334182Y-81998468D02*
X140857992Y-82331802D01*
X141334182Y-82569897D02*
X140334182Y-82569897D01*
X140334182Y-82188944D01*
X140381802Y-82093706D01*
X140429421Y-82046087D01*
X140524659Y-81998468D01*
X140667516Y-81998468D01*
X140762754Y-82046087D01*
X140810373Y-82093706D01*
X140857992Y-82188944D01*
X140857992Y-82569897D01*
X140334182Y-81665135D02*
X140334182Y-81046087D01*
X140715135Y-81379421D01*
X140715135Y-81236563D01*
X140762754Y-81141325D01*
X140810373Y-81093706D01*
X140905611Y-81046087D01*
X141143706Y-81046087D01*
X141238944Y-81093706D01*
X141286563Y-81141325D01*
X141334182Y-81236563D01*
X141334182Y-81522278D01*
X141286563Y-81617516D01*
X141238944Y-81665135D01*
%TO.C,VR1*%
X122284182Y-87741325D02*
X123284182Y-87407992D01*
X122284182Y-87074659D01*
X123284182Y-86169897D02*
X122807992Y-86503230D01*
X123284182Y-86741325D02*
X122284182Y-86741325D01*
X122284182Y-86360373D01*
X122331802Y-86265135D01*
X122379421Y-86217516D01*
X122474659Y-86169897D01*
X122617516Y-86169897D01*
X122712754Y-86217516D01*
X122760373Y-86265135D01*
X122807992Y-86360373D01*
X122807992Y-86741325D01*
X123284182Y-85217516D02*
X123284182Y-85788944D01*
X123284182Y-85503230D02*
X122284182Y-85503230D01*
X122427040Y-85598468D01*
X122522278Y-85693706D01*
X122569897Y-85788944D01*
%TO.C,SW1*%
X129598468Y-90836563D02*
X129741325Y-90884182D01*
X129979421Y-90884182D01*
X130074659Y-90836563D01*
X130122278Y-90788944D01*
X130169897Y-90693706D01*
X130169897Y-90598468D01*
X130122278Y-90503230D01*
X130074659Y-90455611D01*
X129979421Y-90407992D01*
X129788944Y-90360373D01*
X129693706Y-90312754D01*
X129646087Y-90265135D01*
X129598468Y-90169897D01*
X129598468Y-90074659D01*
X129646087Y-89979421D01*
X129693706Y-89931802D01*
X129788944Y-89884182D01*
X130027040Y-89884182D01*
X130169897Y-89931802D01*
X130503230Y-89884182D02*
X130741325Y-90884182D01*
X130931802Y-90169897D01*
X131122278Y-90884182D01*
X131360373Y-89884182D01*
X132265135Y-90884182D02*
X131693706Y-90884182D01*
X131979421Y-90884182D02*
X131979421Y-89884182D01*
X131884182Y-90027040D01*
X131788944Y-90122278D01*
X131693706Y-90169897D01*
%TO.C,R1*%
X147384182Y-94948468D02*
X146907992Y-95281802D01*
X147384182Y-95519897D02*
X146384182Y-95519897D01*
X146384182Y-95138944D01*
X146431802Y-95043706D01*
X146479421Y-94996087D01*
X146574659Y-94948468D01*
X146717516Y-94948468D01*
X146812754Y-94996087D01*
X146860373Y-95043706D01*
X146907992Y-95138944D01*
X146907992Y-95519897D01*
X147384182Y-93996087D02*
X147384182Y-94567516D01*
X147384182Y-94281802D02*
X146384182Y-94281802D01*
X146527040Y-94377040D01*
X146622278Y-94472278D01*
X146669897Y-94567516D01*
%TO.C,U4*%
X127719897Y-106934182D02*
X127719897Y-107743706D01*
X127767516Y-107838944D01*
X127815135Y-107886563D01*
X127910373Y-107934182D01*
X128100849Y-107934182D01*
X128196087Y-107886563D01*
X128243706Y-107838944D01*
X128291325Y-107743706D01*
X128291325Y-106934182D01*
X129196087Y-107267516D02*
X129196087Y-107934182D01*
X128957992Y-106886563D02*
X128719897Y-107600849D01*
X129338944Y-107600849D01*
%TO.C,J1*%
X118584182Y-104715135D02*
X119298468Y-104715135D01*
X119441325Y-104762754D01*
X119536563Y-104857992D01*
X119584182Y-105000849D01*
X119584182Y-105096087D01*
X119584182Y-103715135D02*
X119584182Y-104286563D01*
X119584182Y-104000849D02*
X118584182Y-104000849D01*
X118727040Y-104096087D01*
X118822278Y-104191325D01*
X118869897Y-104286563D01*
%TO.C,DISPLAY1*%
X158717516Y-84134182D02*
X158717516Y-83134182D01*
X158955611Y-83134182D01*
X159098468Y-83181802D01*
X159193706Y-83277040D01*
X159241325Y-83372278D01*
X159288944Y-83562754D01*
X159288944Y-83705611D01*
X159241325Y-83896087D01*
X159193706Y-83991325D01*
X159098468Y-84086563D01*
X158955611Y-84134182D01*
X158717516Y-84134182D01*
X159717516Y-84134182D02*
X159717516Y-83134182D01*
X160146087Y-84086563D02*
X160288944Y-84134182D01*
X160527040Y-84134182D01*
X160622278Y-84086563D01*
X160669897Y-84038944D01*
X160717516Y-83943706D01*
X160717516Y-83848468D01*
X160669897Y-83753230D01*
X160622278Y-83705611D01*
X160527040Y-83657992D01*
X160336563Y-83610373D01*
X160241325Y-83562754D01*
X160193706Y-83515135D01*
X160146087Y-83419897D01*
X160146087Y-83324659D01*
X160193706Y-83229421D01*
X160241325Y-83181802D01*
X160336563Y-83134182D01*
X160574659Y-83134182D01*
X160717516Y-83181802D01*
X161146087Y-84134182D02*
X161146087Y-83134182D01*
X161527040Y-83134182D01*
X161622278Y-83181802D01*
X161669897Y-83229421D01*
X161717516Y-83324659D01*
X161717516Y-83467516D01*
X161669897Y-83562754D01*
X161622278Y-83610373D01*
X161527040Y-83657992D01*
X161146087Y-83657992D01*
X162622278Y-84134182D02*
X162146087Y-84134182D01*
X162146087Y-83134182D01*
X162907992Y-83848468D02*
X163384182Y-83848468D01*
X162812754Y-84134182D02*
X163146087Y-83134182D01*
X163479421Y-84134182D01*
X164003230Y-83657992D02*
X164003230Y-84134182D01*
X163669897Y-83134182D02*
X164003230Y-83657992D01*
X164336563Y-83134182D01*
X165193706Y-84134182D02*
X164622278Y-84134182D01*
X164907992Y-84134182D02*
X164907992Y-83134182D01*
X164812754Y-83277040D01*
X164717516Y-83372278D01*
X164622278Y-83419897D01*
%TO.C,C1*%
X146665135Y-125038944D02*
X146617516Y-125086563D01*
X146474659Y-125134182D01*
X146379421Y-125134182D01*
X146236563Y-125086563D01*
X146141325Y-124991325D01*
X146093706Y-124896087D01*
X146046087Y-124705611D01*
X146046087Y-124562754D01*
X146093706Y-124372278D01*
X146141325Y-124277040D01*
X146236563Y-124181802D01*
X146379421Y-124134182D01*
X146474659Y-124134182D01*
X146617516Y-124181802D01*
X146665135Y-124229421D01*
X147617516Y-125134182D02*
X147046087Y-125134182D01*
X147331802Y-125134182D02*
X147331802Y-124134182D01*
X147236563Y-124277040D01*
X147141325Y-124372278D01*
X147046087Y-124419897D01*
%TO.C,D1*%
X165623706Y-111794182D02*
X165623706Y-110794182D01*
X165861802Y-110794182D01*
X166004659Y-110841802D01*
X166099897Y-110937040D01*
X166147516Y-111032278D01*
X166195135Y-111222754D01*
X166195135Y-111365611D01*
X166147516Y-111556087D01*
X166099897Y-111651325D01*
X166004659Y-111746563D01*
X165861802Y-111794182D01*
X165623706Y-111794182D01*
X167147516Y-111794182D02*
X166576087Y-111794182D01*
X166861802Y-111794182D02*
X166861802Y-110794182D01*
X166766563Y-110937040D01*
X166671325Y-111032278D01*
X166576087Y-111079897D01*
%TO.C,C2*%
X153815135Y-125038944D02*
X153767516Y-125086563D01*
X153624659Y-125134182D01*
X153529421Y-125134182D01*
X153386563Y-125086563D01*
X153291325Y-124991325D01*
X153243706Y-124896087D01*
X153196087Y-124705611D01*
X153196087Y-124562754D01*
X153243706Y-124372278D01*
X153291325Y-124277040D01*
X153386563Y-124181802D01*
X153529421Y-124134182D01*
X153624659Y-124134182D01*
X153767516Y-124181802D01*
X153815135Y-124229421D01*
X154196087Y-124229421D02*
X154243706Y-124181802D01*
X154338944Y-124134182D01*
X154577040Y-124134182D01*
X154672278Y-124181802D01*
X154719897Y-124229421D01*
X154767516Y-124324659D01*
X154767516Y-124419897D01*
X154719897Y-124562754D01*
X154148468Y-125134182D01*
X154767516Y-125134182D01*
%TO.C,J2*%
X164384182Y-97665135D02*
X165098468Y-97665135D01*
X165241325Y-97712754D01*
X165336563Y-97807992D01*
X165384182Y-97950849D01*
X165384182Y-98046087D01*
X164479421Y-97236563D02*
X164431802Y-97188944D01*
X164384182Y-97093706D01*
X164384182Y-96855611D01*
X164431802Y-96760373D01*
X164479421Y-96712754D01*
X164574659Y-96665135D01*
X164669897Y-96665135D01*
X164812754Y-96712754D01*
X165384182Y-97284182D01*
X165384182Y-96665135D01*
%TO.C,R5*%
X128885135Y-96784182D02*
X128551802Y-96307992D01*
X128313706Y-96784182D02*
X128313706Y-95784182D01*
X128694659Y-95784182D01*
X128789897Y-95831802D01*
X128837516Y-95879421D01*
X128885135Y-95974659D01*
X128885135Y-96117516D01*
X128837516Y-96212754D01*
X128789897Y-96260373D01*
X128694659Y-96307992D01*
X128313706Y-96307992D01*
X129789897Y-95784182D02*
X129313706Y-95784182D01*
X129266087Y-96260373D01*
X129313706Y-96212754D01*
X129408944Y-96165135D01*
X129647040Y-96165135D01*
X129742278Y-96212754D01*
X129789897Y-96260373D01*
X129837516Y-96355611D01*
X129837516Y-96593706D01*
X129789897Y-96688944D01*
X129742278Y-96736563D01*
X129647040Y-96784182D01*
X129408944Y-96784182D01*
X129313706Y-96736563D01*
X129266087Y-96688944D01*
%TO.C,D2*%
X150018706Y-110834182D02*
X150018706Y-109834182D01*
X150256802Y-109834182D01*
X150399659Y-109881802D01*
X150494897Y-109977040D01*
X150542516Y-110072278D01*
X150590135Y-110262754D01*
X150590135Y-110405611D01*
X150542516Y-110596087D01*
X150494897Y-110691325D01*
X150399659Y-110786563D01*
X150256802Y-110834182D01*
X150018706Y-110834182D01*
X150971087Y-109929421D02*
X151018706Y-109881802D01*
X151113944Y-109834182D01*
X151352040Y-109834182D01*
X151447278Y-109881802D01*
X151494897Y-109929421D01*
X151542516Y-110024659D01*
X151542516Y-110119897D01*
X151494897Y-110262754D01*
X150923468Y-110834182D01*
X151542516Y-110834182D01*
%TO.C,R2*%
X172134182Y-104178468D02*
X171657992Y-104511802D01*
X172134182Y-104749897D02*
X171134182Y-104749897D01*
X171134182Y-104368944D01*
X171181802Y-104273706D01*
X171229421Y-104226087D01*
X171324659Y-104178468D01*
X171467516Y-104178468D01*
X171562754Y-104226087D01*
X171610373Y-104273706D01*
X171657992Y-104368944D01*
X171657992Y-104749897D01*
X171229421Y-103797516D02*
X171181802Y-103749897D01*
X171134182Y-103654659D01*
X171134182Y-103416563D01*
X171181802Y-103321325D01*
X171229421Y-103273706D01*
X171324659Y-103226087D01*
X171419897Y-103226087D01*
X171562754Y-103273706D01*
X172134182Y-103845135D01*
X172134182Y-103226087D01*
%TO.C,U3*%
X136869897Y-107234182D02*
X136869897Y-108043706D01*
X136917516Y-108138944D01*
X136965135Y-108186563D01*
X137060373Y-108234182D01*
X137250849Y-108234182D01*
X137346087Y-108186563D01*
X137393706Y-108138944D01*
X137441325Y-108043706D01*
X137441325Y-107234182D01*
X137822278Y-107234182D02*
X138441325Y-107234182D01*
X138107992Y-107615135D01*
X138250849Y-107615135D01*
X138346087Y-107662754D01*
X138393706Y-107710373D01*
X138441325Y-107805611D01*
X138441325Y-108043706D01*
X138393706Y-108138944D01*
X138346087Y-108186563D01*
X138250849Y-108234182D01*
X137965135Y-108234182D01*
X137869897Y-108186563D01*
X137822278Y-108138944D01*
%TO.C,Q1*%
X142429421Y-103177040D02*
X142381802Y-103272278D01*
X142286563Y-103367516D01*
X142143706Y-103510373D01*
X142096087Y-103605611D01*
X142096087Y-103700849D01*
X142334182Y-103653230D02*
X142286563Y-103748468D01*
X142191325Y-103843706D01*
X142000849Y-103891325D01*
X141667516Y-103891325D01*
X141477040Y-103843706D01*
X141381802Y-103748468D01*
X141334182Y-103653230D01*
X141334182Y-103462754D01*
X141381802Y-103367516D01*
X141477040Y-103272278D01*
X141667516Y-103224659D01*
X142000849Y-103224659D01*
X142191325Y-103272278D01*
X142286563Y-103367516D01*
X142334182Y-103462754D01*
X142334182Y-103653230D01*
X142334182Y-102272278D02*
X142334182Y-102843706D01*
X142334182Y-102557992D02*
X141334182Y-102557992D01*
X141477040Y-102653230D01*
X141572278Y-102748468D01*
X141619897Y-102843706D01*
%TO.C,R4*%
X143285135Y-93334182D02*
X142951802Y-92857992D01*
X142713706Y-93334182D02*
X142713706Y-92334182D01*
X143094659Y-92334182D01*
X143189897Y-92381802D01*
X143237516Y-92429421D01*
X143285135Y-92524659D01*
X143285135Y-92667516D01*
X143237516Y-92762754D01*
X143189897Y-92810373D01*
X143094659Y-92857992D01*
X142713706Y-92857992D01*
X144142278Y-92667516D02*
X144142278Y-93334182D01*
X143904182Y-92286563D02*
X143666087Y-93000849D01*
X144285135Y-93000849D01*
%TO.C,U2*%
X135934182Y-121343706D02*
X136743706Y-121343706D01*
X136838944Y-121296087D01*
X136886563Y-121248468D01*
X136934182Y-121153230D01*
X136934182Y-120962754D01*
X136886563Y-120867516D01*
X136838944Y-120819897D01*
X136743706Y-120772278D01*
X135934182Y-120772278D01*
X136029421Y-120343706D02*
X135981802Y-120296087D01*
X135934182Y-120200849D01*
X135934182Y-119962754D01*
X135981802Y-119867516D01*
X136029421Y-119819897D01*
X136124659Y-119772278D01*
X136219897Y-119772278D01*
X136362754Y-119819897D01*
X136934182Y-120391325D01*
X136934182Y-119772278D01*
D11*
%TO.C,U1*%
X159841802Y-86576802D02*
X158591802Y-86576802D01*
X152341802Y-122316802D02*
X162841802Y-122316802D01*
X152341802Y-86516802D02*
X152341802Y-122316802D01*
X155341802Y-86576802D02*
X155341802Y-122256802D01*
X162841802Y-86516802D02*
X152341802Y-86516802D01*
X159841802Y-122256802D02*
X159841802Y-86576802D01*
X156591802Y-86576802D02*
X155341802Y-86576802D01*
X155341802Y-122256802D02*
X159841802Y-122256802D01*
X162841802Y-122316802D02*
X162841802Y-86516802D01*
X156591802Y-86576802D02*
G75*
G03*
X158591802Y-86576802I1000000J0D01*
G01*
%TO.C,Y1*%
X145706802Y-127256802D02*
X151956802Y-127256802D01*
X145706802Y-132306802D02*
X151956802Y-132306802D01*
X145706802Y-127256802D02*
G75*
G03*
X145706802Y-132306802I0J-2525000D01*
G01*
X151956802Y-132306802D02*
G75*
G03*
X151956802Y-127256802I0J2525000D01*
G01*
%TO.C,R3*%
X139511802Y-80711802D02*
X139511802Y-87251802D01*
X142251802Y-87251802D02*
X142251802Y-80711802D01*
X142251802Y-80711802D02*
X139511802Y-80711802D01*
X140881802Y-88021802D02*
X140881802Y-87251802D01*
X139511802Y-87251802D02*
X142251802Y-87251802D01*
X140881802Y-79941802D02*
X140881802Y-80711802D01*
%TO.C,VR1*%
X125391802Y-94971802D02*
X124861802Y-94721802D01*
X120371802Y-90691802D02*
X120971802Y-90691802D01*
X126391802Y-94971802D02*
X125391802Y-94971802D01*
X120371802Y-95771802D02*
X120971802Y-95771802D01*
X120971802Y-89091802D02*
X120371802Y-89091802D01*
X124861802Y-90141802D02*
X125391802Y-89891802D01*
X125391802Y-94971802D02*
X125391802Y-89891802D01*
X120971802Y-93231802D02*
X120971802Y-91631802D01*
X120971802Y-90691802D02*
X120971802Y-89091802D01*
X126391802Y-94721802D02*
X125391802Y-94721802D01*
X120971802Y-95771802D02*
X120971802Y-94171802D01*
X124861802Y-94721802D02*
X124861802Y-90141802D01*
X120971802Y-94171802D02*
X120371802Y-94171802D01*
X126391802Y-90141802D02*
X125391802Y-90141802D01*
X126391802Y-96351802D02*
X126391802Y-88511802D01*
X126391802Y-88511802D02*
X120371802Y-88511802D01*
X125391802Y-89891802D02*
X126391802Y-89891802D01*
X120971802Y-91631802D02*
X120371802Y-91631802D01*
X121401802Y-96641802D02*
X125401802Y-96641802D01*
X120371802Y-93231802D02*
X120971802Y-93231802D01*
X120371802Y-96351802D02*
X126391802Y-96351802D01*
X120371802Y-88511802D02*
X120371802Y-96351802D01*
%TO.C,SW1*%
X134581802Y-80781802D02*
X130081802Y-80781802D01*
X135831802Y-84781802D02*
X135831802Y-83281802D01*
X130081802Y-87281802D02*
X134581802Y-87281802D01*
X128831802Y-83281802D02*
X128831802Y-84781802D01*
%TO.C,R1*%
X148001802Y-99251802D02*
X148001802Y-92711802D01*
X145261802Y-92711802D02*
X145261802Y-99251802D01*
X146631802Y-100021802D02*
X146631802Y-99251802D01*
X148001802Y-92711802D02*
X145261802Y-92711802D01*
X146631802Y-91941802D02*
X146631802Y-92711802D01*
X145261802Y-99251802D02*
X148001802Y-99251802D01*
%TO.C,U4*%
X122281802Y-114171802D02*
X132561802Y-114171802D01*
X124771802Y-114111802D02*
X126421802Y-114111802D01*
X128421802Y-114111802D02*
X130071802Y-114111802D01*
X130071802Y-103831802D02*
X124771802Y-103831802D01*
X124771802Y-103831802D02*
X124771802Y-114111802D01*
X130071802Y-114111802D02*
X130071802Y-103831802D01*
X122281802Y-103771802D02*
X122281802Y-114171802D01*
X132561802Y-103771802D02*
X122281802Y-103771802D01*
X132561802Y-114171802D02*
X132561802Y-103771802D01*
X128421802Y-114111802D02*
G75*
G03*
X126421802Y-114111802I-1000000J0D01*
G01*
%TO.C,J1*%
X121271802Y-101531802D02*
X120741802Y-101281802D01*
X116851802Y-102331802D02*
X116851802Y-100731802D01*
X117281802Y-103201802D02*
X121281802Y-103201802D01*
X116851802Y-98191802D02*
X116251802Y-98191802D01*
X116251802Y-102331802D02*
X116851802Y-102331802D01*
X122271802Y-97611802D02*
X116251802Y-97611802D01*
X122271802Y-102911802D02*
X122271802Y-97611802D01*
X122271802Y-99241802D02*
X121271802Y-99241802D01*
X116251802Y-102911802D02*
X122271802Y-102911802D01*
X120741802Y-101281802D02*
X120741802Y-99241802D01*
X120741802Y-99241802D02*
X121271802Y-98991802D01*
X122271802Y-101531802D02*
X121271802Y-101531802D01*
X121271802Y-101531802D02*
X121271802Y-98991802D01*
X116851802Y-99791802D02*
X116851802Y-98191802D01*
X116251802Y-99791802D02*
X116851802Y-99791802D01*
X116851802Y-100731802D02*
X116251802Y-100731802D01*
X116251802Y-97611802D02*
X116251802Y-102911802D01*
X121271802Y-98991802D02*
X122271802Y-98991802D01*
X122271802Y-101281802D02*
X121271802Y-101281802D01*
%TO.C,DISPLAY1*%
X148871802Y-85191802D02*
X148871802Y-84191802D01*
X153151802Y-79771802D02*
X154751802Y-79771802D01*
X157291802Y-79771802D02*
X157291802Y-79171802D01*
X148871802Y-84191802D02*
X149121802Y-83661802D01*
X148071802Y-79771802D02*
X149671802Y-79771802D01*
X156241802Y-85191802D02*
X156241802Y-84191802D01*
X153151802Y-79171802D02*
X153151802Y-79771802D01*
X147201802Y-80201802D02*
X147201802Y-84201802D01*
X148871802Y-84191802D02*
X156491802Y-84191802D01*
X156491802Y-84191802D02*
X156491802Y-85191802D01*
X157871802Y-85191802D02*
X157871802Y-79171802D01*
X147491802Y-85191802D02*
X157871802Y-85191802D01*
X149121802Y-85191802D02*
X149121802Y-84191802D01*
X156241802Y-83661802D02*
X156491802Y-84191802D01*
X152211802Y-79771802D02*
X152211802Y-79171802D01*
X148071802Y-79171802D02*
X148071802Y-79771802D01*
X155691802Y-79771802D02*
X157291802Y-79771802D01*
X150611802Y-79171802D02*
X150611802Y-79771802D01*
X157871802Y-79171802D02*
X147491802Y-79171802D01*
X149121802Y-83661802D02*
X156241802Y-83661802D01*
X147491802Y-79171802D02*
X147491802Y-85191802D01*
X150611802Y-79771802D02*
X152211802Y-79771802D01*
X149671802Y-79771802D02*
X149671802Y-79171802D01*
X154751802Y-79771802D02*
X154751802Y-79171802D01*
X155691802Y-79171802D02*
X155691802Y-79771802D01*
%TO.C,C1*%
X144161802Y-123361802D02*
X149101802Y-123361802D01*
X144161802Y-126101802D02*
X149101802Y-126101802D01*
X149101802Y-123361802D02*
X149101802Y-123676802D01*
X144161802Y-125786802D02*
X144161802Y-126101802D01*
X144161802Y-123361802D02*
X144161802Y-123676802D01*
X149101802Y-125786802D02*
X149101802Y-126101802D01*
%TO.C,D1*%
X168921802Y-108926802D02*
X168921802Y-105836802D01*
X163371802Y-107381340D02*
G75*
G03*
X168921802Y-108926632I2990000J-462D01*
G01*
X168921802Y-105836972D02*
G75*
G03*
X163371802Y-107382264I-2560000J-1544830D01*
G01*
X168861802Y-107381802D02*
G75*
G03*
X168861802Y-107381802I-2500000J0D01*
G01*
%TO.C,C2*%
X156901802Y-123676802D02*
X156901802Y-123361802D01*
X156901802Y-126101802D02*
X151961802Y-126101802D01*
X156901802Y-123361802D02*
X151961802Y-123361802D01*
X151961802Y-123676802D02*
X151961802Y-123361802D01*
X156901802Y-126101802D02*
X156901802Y-125786802D01*
X151961802Y-126101802D02*
X151961802Y-125786802D01*
%TO.C,J2*%
X164221802Y-95231802D02*
X163621802Y-95231802D01*
X163621802Y-94291802D02*
X164221802Y-94291802D01*
X168641802Y-90951802D02*
X169641802Y-90951802D01*
X164651802Y-102781802D02*
X168651802Y-102781802D01*
X169641802Y-100861802D02*
X168641802Y-100861802D01*
X163621802Y-96831802D02*
X164221802Y-96831802D01*
X163621802Y-89571802D02*
X163621802Y-102491802D01*
X163621802Y-101911802D02*
X164221802Y-101911802D01*
X164221802Y-99371802D02*
X164221802Y-97771802D01*
X169641802Y-101111802D02*
X168641802Y-101111802D01*
X163621802Y-91751802D02*
X164221802Y-91751802D01*
X168641802Y-101111802D02*
X168111802Y-100861802D01*
X164221802Y-90151802D02*
X163621802Y-90151802D01*
X169641802Y-89571802D02*
X163621802Y-89571802D01*
X163621802Y-99371802D02*
X164221802Y-99371802D01*
X164221802Y-100311802D02*
X163621802Y-100311802D01*
X164221802Y-94291802D02*
X164221802Y-92691802D01*
X164221802Y-97771802D02*
X163621802Y-97771802D01*
X163621802Y-102491802D02*
X169641802Y-102491802D01*
X164221802Y-91751802D02*
X164221802Y-90151802D01*
X169641802Y-102491802D02*
X169641802Y-89571802D01*
X164221802Y-101911802D02*
X164221802Y-100311802D01*
X168111802Y-91201802D02*
X168641802Y-90951802D01*
X169641802Y-91201802D02*
X168641802Y-91201802D01*
X164221802Y-96831802D02*
X164221802Y-95231802D01*
X168641802Y-101111802D02*
X168641802Y-90951802D01*
X168111802Y-100861802D02*
X168111802Y-91201802D01*
X164221802Y-92691802D02*
X163621802Y-92691802D01*
%TO.C,R5*%
X139571802Y-94961802D02*
X133031802Y-94961802D01*
X133031802Y-97701802D02*
X139571802Y-97701802D01*
X139571802Y-97701802D02*
X139571802Y-94961802D01*
X132261802Y-96331802D02*
X133031802Y-96331802D01*
X140341802Y-96331802D02*
X139571802Y-96331802D01*
X133031802Y-94961802D02*
X133031802Y-97701802D01*
%TO.C,D2*%
X148821802Y-113276802D02*
X148821802Y-110186802D01*
X148821802Y-110186972D02*
G75*
G03*
X143271802Y-111732264I-2560000J-1544830D01*
G01*
X143271802Y-111731340D02*
G75*
G03*
X148821802Y-113276632I2990000J-462D01*
G01*
X148761802Y-111731802D02*
G75*
G03*
X148761802Y-111731802I-2500000J0D01*
G01*
%TO.C,R2*%
X170411802Y-102691802D02*
X170411802Y-109231802D01*
X171781802Y-101921802D02*
X171781802Y-102691802D01*
X171781802Y-110001802D02*
X171781802Y-109231802D01*
X170411802Y-109231802D02*
X173151802Y-109231802D01*
X173151802Y-102691802D02*
X170411802Y-102691802D01*
X173151802Y-109231802D02*
X173151802Y-102691802D01*
%TO.C,U3*%
X136041802Y-111321802D02*
X136041802Y-110981802D01*
X136041802Y-113991802D02*
X138641802Y-113991802D01*
X136041802Y-113641802D02*
X136041802Y-113991802D01*
X136041802Y-110981802D02*
X141131802Y-110981802D01*
X140741719Y-110980066D02*
G75*
G03*
X136541802Y-110981802I-2099917J-101736D01*
G01*
%TO.C,Q1*%
X140831802Y-105051802D02*
X140831802Y-101451802D01*
X140820280Y-101413324D02*
G75*
G03*
X136381802Y-103251802I-1838478J-1838478D01*
G01*
X136381801Y-103251802D02*
G75*
G03*
X140820280Y-105090280I2600001J0D01*
G01*
%TO.C,R4*%
X139471802Y-91561802D02*
X132931802Y-91561802D01*
X140241802Y-92931802D02*
X139471802Y-92931802D01*
X132931802Y-94301802D02*
X139471802Y-94301802D01*
X139471802Y-94301802D02*
X139471802Y-91561802D01*
X132161802Y-92931802D02*
X132931802Y-92931802D01*
X132931802Y-91561802D02*
X132931802Y-94301802D01*
%TO.C,U2*%
X137649302Y-115604302D02*
X149909302Y-115604302D01*
X137369302Y-121644302D02*
X137369302Y-120034302D01*
X137369302Y-121644302D02*
X139369302Y-121644302D01*
X137649302Y-121354302D02*
X137649302Y-115614302D01*
X149909302Y-115604302D02*
X149909302Y-121364302D01*
X149909302Y-121364302D02*
X137659302Y-121364302D01*
%TD*%
M02*
